<?xml version="1.0" standalone="no"?>
<!DOCTYPE svg PUBLIC "-//W3C//DTD SVG 1.1//EN" "http://www.w3.org/Graphics/SVG/1.1/DTD/svg11.dtd" >
<svg xmlns="http://www.w3.org/2000/svg">
<metadata></metadata>
<defs>
<font id="sanchezregular" horiz-adv-x="1722" >
<font-face units-per-em="2048" ascent="1638" descent="-410" />
<missing-glyph horiz-adv-x="641" />
<glyph unicode="&#xfb01;" horiz-adv-x="1361" d="M78 895v88q0 25 26 25h117v127q0 169 86.5 258.5t243.5 89.5q116 0 207 -82q22 -19 6 -35l-49 -63q-20 -20 -35 -5q-48 39 -123 39q-74 0 -121 -53q-45 -51 -45 -151v-125h733q25 0 25 -25v-846h108q27 0 27 -24v-88q0 -25 -27 -25h-391q-26 0 -26 25v88q0 24 26 24h113 v733h-588v-733h180q25 0 25 -24v-88q0 -25 -25 -25h-462q-27 0 -27 25v88q0 24 27 24h112v733h-117q-26 0 -26 25zM947 1228.5q0 47.5 32 82.5q35 35 82.5 35t79.5 -35q35 -35 35 -82.5t-35 -79.5q-32 -32 -79.5 -32t-82.5 32q-32 32 -32 79.5z" />
<glyph unicode="&#xfb02;" horiz-adv-x="1392" d="M78 895v88q0 25 26 25h117v127q0 169 86.5 258.5t243.5 89.5q116 0 207 -82q22 -19 6 -35l-49 -63q-20 -20 -35 -5q-48 39 -123 39q-74 0 -121 -53q-45 -51 -45 -151v-125h262q27 0 27 -25v-88q0 -25 -27 -25h-262v-733h180q25 0 25 -24v-88q0 -25 -25 -25h-462 q-27 0 -27 25v88q0 24 27 24h112v733h-117q-26 0 -26 25zM870 25v88q0 24 27 24h113v1196h-113q-27 0 -27 25v88q0 24 27 24h227q56 0 56 -51v-1282h108q27 0 27 -24v-88q0 -25 -27 -25h-391q-27 0 -27 25z" />
<glyph horiz-adv-x="2048" />
<glyph horiz-adv-x="2048" />
<glyph unicode="&#xd;" horiz-adv-x="2048" />
<glyph unicode=" "  horiz-adv-x="641" />
<glyph unicode="&#x09;" horiz-adv-x="641" />
<glyph unicode="&#xa0;" horiz-adv-x="641" />
<glyph unicode="!" horiz-adv-x="372" d="M78 8q0 45 31 76q32 32 78 32t77 -32q31 -31 31 -76t-31 -76q-31 -32 -77 -32t-78 32q-31 31 -31 76zM100 328v1204q0 24 25 24h123q24 0 24 -24v-1204q0 -25 -24 -25h-123q-25 0 -25 25z" />
<glyph unicode="&#x22;" horiz-adv-x="569" d="M78 1509q0 27 28 27h89q29 0 26 -27l-10 -333q0 -27 -27 -27h-69q-27 0 -27 27zM348 1509q0 27 27 27h90q30 0 27 -27l-11 -333q0 -27 -26 -27h-70q-27 0 -27 27z" />
<glyph unicode="#" horiz-adv-x="1253" d="M78 254v76q0 24 26 24h199l74 258h-162q-25 0 -25 27v74q0 26 25 26h199l65 224q6 26 33 26h102q23 0 17 -26l-66 -224h269l65 224q6 26 33 26h100q26 0 17 -26l-64 -224h164q27 0 27 -26v-74q0 -27 -27 -27h-201l-76 -258h166q25 0 25 -24v-76q0 -25 -25 -25h-200 l-64 -219q-6 -24 -31 -24h-100q-27 0 -18 24l61 219h-266l-64 -219q-6 -24 -32 -24h-101q-24 0 -18 24l63 219h-164q-26 0 -26 25zM455 354h266l76 258h-269z" />
<glyph unicode="$" horiz-adv-x="1323" d="M78 88v385q0 25 26 25h129q25 0 25 -25v-12q6 -55 96 -168q52 -62 145 -101.5t220 -39.5q138 0 225.5 66t87.5 181q0 57 -31 100.5t-83.5 71t-121 49t-144 40.5t-150.5 40.5t-143.5 53.5t-121 73.5t-83.5 107.5t-31 150q0 166 123 277q121 112 334 121v141q0 25 24 25 h111q24 0 24 -25v-162q178 -24 269 -141l-4 80q0 24 26 24h115q24 0 24 -24v-371q0 -24 -24 -24h-129q-25 0 -25 24v27q-3 75 -82 160q-95 98 -307 98q-117 0 -201 -66q-82 -64 -82 -153t52 -144q56 -56 133 -84q56 -22 147 -46.5t165.5 -42.5t157.5 -51t139.5 -72t94 -105 t37.5 -152q0 -180 -123.5 -292t-357.5 -119v-140q0 -24 -25 -24h-110q-25 0 -25 24v154q-128 18 -219.5 79t-140.5 144h-4l4 -137q3 -25 -25 -25h-115q-26 0 -26 25z" />
<glyph unicode="%" horiz-adv-x="1542" d="M78 1108q0 167 80 270q82 105 217 105q138 0 215 -103q80 -103 80 -270q0 -165 -78 -272q-77 -103 -217 -103q-139 0 -219 103q-78 107 -78 270zM201 1110q0 -127 45 -195q46 -67 129 -67q81 0 127 67q47 71 47 195q0 128 -45 193q-46 67 -129 67t-129 -67 q-45 -65 -45 -193zM422 -135q0 6 2 8l498 1659q6 24 32 24h121q21 0 21 -16q0 -6 -2 -8l-498 -1659q-6 -25 -31 -25h-123q-20 0 -20 17zM872 360q0 168 80 271q80 102 215 102q137 0 217 -102q80 -103 80 -271q0 -165 -78 -272q-76 -102 -217 -102q-139 0 -219 102 q-78 107 -78 272zM995 360q0 -126 45 -194q47 -68 129 -68q80 0 127 68q45 68 45 194q0 128 -45 193q-47 68 -129 68q-80 0 -127 -68q-45 -65 -45 -193z" />
<glyph unicode="&#x26;" horiz-adv-x="1380" d="M76 399q0 191 129 299q106 85 221 133q-139 165 -139 318q0 154 96 244q101 90 242 90q143 0 241 -82q101 -82 101 -230q0 -147 -86 -233q-85 -88 -228 -158l273 -387q53 109 53 307q0 25 27 25h270q24 0 24 -25v-75q0 -25 -24 -25h-152q-9 -186 -100 -344l82 -115h129 q27 0 27 -24v-92q0 -25 -27 -25h-166q-43 0 -98 76l-43 61q-145 -151 -375 -151q-227 0 -352 125t-125 288zM258 403q0 -121 88 -194q89 -74 215 -74q177 0 279 123l-324 453q-179 -75 -233 -187q-25 -58 -25 -121zM451 1135q0 -97 120 -244q182 80 220 166q18 31 20 78 t-13 93t-57.5 77.5t-105.5 29.5q-84 0 -134 -52t-50 -148z" />
<glyph unicode="'" horiz-adv-x="301" d="M78 1509q0 27 28 27h89q26 0 26 -27l-10 -333q0 -27 -27 -27h-69q-27 0 -27 27z" />
<glyph unicode="(" horiz-adv-x="843" d="M78 719q0 206 58 374.5t157 270.5q194 203 444 203q27 0 27 -27v-104q0 -27 -27 -27q-176 0 -325 -168q-75 -81 -119.5 -220.5t-44.5 -309.5q0 -168 45.5 -307.5t120.5 -219.5q148 -161 323 -161q27 0 27 -27v-105q0 -26 -27 -26q-248 0 -444 205q-99 102 -157 272.5 t-58 376.5z" />
<glyph unicode=")" horiz-adv-x="843" d="M78 -6q0 29 28 29q177 0 324 159q76 82 121 220.5t45 306.5q0 169 -44.5 308.5t-119.5 223.5q-150 166 -326 166q-28 0 -28 27v104q0 27 28 27q245 0 443 -201q100 -102 157.5 -271t57.5 -376t-57.5 -377.5t-157.5 -271.5q-196 -205 -443 -205q-28 0 -28 28v103z" />
<glyph unicode="*" horiz-adv-x="845" d="M78 1167v70q0 12 8 20t20 7l234 -29l-186 147q-21 18 0 39l49 49q23 20 39 0l145 -182l-27 232q-1 10 7 18t20 8h70q12 0 19.5 -7t6.5 -19l-22 -234l141 184q21 21 39 0l49 -47q23 -23 -2 -41l-182 -149l231 33q12 1 20.5 -7t8.5 -20v-70q0 -28 -29 -28l-227 22l180 -139 q20 -16 0 -39l-49 -49q-18 -21 -39 0l-145 178l26 -227q1 -12 -6.5 -19.5t-19.5 -7.5h-70q-12 0 -20.5 8.5t-6.5 18.5l23 231l-139 -182q-22 -22 -41 -2l-47 49q-22 22 0 41l186 141l-236 -24q-12 -1 -20 6.5t-8 19.5z" />
<glyph unicode="+" horiz-adv-x="821" d="M78 469v104q0 27 28 27h224v225q0 25 24 25h119q25 0 25 -25v-225h217q26 0 26 -27v-104q0 -27 -26 -27h-217v-219q0 -26 -25 -26h-119q-24 0 -24 26v219h-224q-28 0 -28 27z" />
<glyph unicode="," horiz-adv-x="325" d="M57 78q0 43 29 70.5t76 27.5q106 0 106 -172q0 -91 -44.5 -145t-117.5 -54q-14 0 -14 11v34q0 6 10.5 8t29 9t32.5 24q26 26 26 80l-4 25q-10 -9 -31.5 -9.5t-43 7t-38 30t-16.5 54.5z" />
<glyph unicode="-" horiz-adv-x="847" d="M78 481v105q0 26 28 26h637q27 0 27 -26v-105q0 -26 -27 -26h-637q-28 0 -28 26z" />
<glyph unicode="." horiz-adv-x="309" d="M57 82.5q0 41.5 29 67.5q29 29 70 29t67 -29q29 -26 29 -67.5t-29 -70.5q-26 -26 -67 -26t-70 26q-29 29 -29 70.5z" />
<glyph unicode="/" horiz-adv-x="829" d="M78 -135q0 6 2 8l495 1659q9 24 35 24h121q19 0 19 -12q0 -8 -2 -12l-496 -1659q-6 -25 -31 -25h-123q-20 0 -20 17z" />
<glyph unicode="0" horiz-adv-x="1339" d="M78 735q0 334 160 541t432 207t432 -207t160 -541q0 -331 -158 -542q-157 -207 -434 -207q-280 0 -437 207q-155 204 -155 542zM268 733q0 -276 107 -428q108 -153 295 -153q186 0 295 151q106 150 106 430q0 276 -108 432t-293 156q-187 0 -295 -156 q-107 -155 -107 -432z" />
<glyph unicode="1" horiz-adv-x="1040" d="M86 1165q-14 17 6 35l357 256q20 14 36 14h129q25 0 25 -24v-1292h299q25 0 25 -25v-104q0 -25 -25 -25h-809q-27 0 -27 25v104q0 25 27 25h332v1124l-283 -203q-20 -15 -35 6z" />
<glyph unicode="2" horiz-adv-x="1232" d="M78 25v63q-1 92 26 171t77.5 139t108 104t130.5 82q51 28 174 89.5t180 96.5q172 108 172 264q0 121 -93 203t-245 82q-153 0 -242.5 -83t-89.5 -214q0 -25 -26 -25h-133q-25 0 -25 25q0 190 133 326q135 135 383 135q250 0 385 -129q137 -125 137 -307q0 -118 -59 -217 t-156 -162q-89 -57 -200 -117q-27 -14 -83 -42t-84.5 -43.5t-69.5 -40t-71.5 -49.5t-56.5 -54q-65 -77 -71 -168h696v147q0 25 24 25h129q27 0 27 -25v-276q0 -25 -27 -25h-1024q-26 0 -26 25z" />
<glyph unicode="3" horiz-adv-x="1208" d="M88 225q-20 15 0 35l88 82q15 15 37 0l33 -35q90 -96 160 -123q82 -32 180 -32q164 0 261 75t97 203q0 260 -352 260h-82q-25 0 -25 27v92q0 27 25 27h65q115 0 183 32q139 65 139 207q0 108 -78 176t-217 68q-134 0 -208.5 -69.5t-74.5 -168.5q0 -24 -24 -24h-125 q-25 0 -25 24q0 185 124 293.5t345 108.5q223 0 347 -121q122 -119 122 -266q0 -148 -94 -236q-95 -86 -155 -86v-2q69 0 170 -72q56 -39 90 -117t34 -175q0 -192 -149 -308q-150 -114 -393 -114q-75 0 -139 12.5t-92.5 24t-67.5 30.5q-73 41 -119 82q-36 31 -66 72z" />
<glyph unicode="4" horiz-adv-x="1245" d="M80 487v82q0 30 26 66l639 788q38 47 76 47h117q27 0 27 -24v-842h161q27 0 27 -26v-91q0 -26 -27 -26h-161v-307h176q26 0 26 -25v-104q0 -25 -26 -25h-590q-25 0 -25 25v104q0 25 25 25h235v307h-682q-24 0 -24 26zM264 604h522v645z" />
<glyph unicode="5" horiz-adv-x="1208" d="M78 243.5q1 7.5 10 16.5l88 82q10 10 19 9.5t16.5 -7.5t23.5 -26q6 -7 9 -11q18 -20 41 -43q66 -58 116 -78q87 -34 185 -34q170 0 265 85.5t95 237.5q0 154 -97 243t-263 89q-127 0 -236 -33q-121 -39 -137 -39q-41 0 -41 51v664q0 25 25 25h821q24 0 24 -25v-266 q0 -25 -24 -25h-131q-25 0 -25 25v137h-510v-416q1 0 14 4t34 9.5t38 9.5q89 18 185 18q242 0 374.5 -127.5t132.5 -349.5q0 -221 -149 -352q-146 -131 -395 -131q-63 2 -112.5 8.5t-86 18.5t-55.5 19.5t-47.5 23.5t-36.5 20q-65 45 -94 74q-13 17 -28.5 33.5t-25 25 t-16.5 18t-6 17z" />
<glyph unicode="6" horiz-adv-x="1255" d="M78 731q0 343 151 547q150 205 441 205q203 0 327 -109q125 -107 125 -278q0 -25 -26 -25h-123q-27 0 -27 25q0 81 -72 153t-204 72q-175 0 -276 -124t-120 -355q165 104 404 104q237 0 369 -129q131 -128 131 -344q0 -210 -146 -350q-143 -137 -401 -137 q-256 0 -406 200q-147 200 -147 545zM268 694q4 -258 101.5 -400t265.5 -142t263 89.5t95 239.5q0 151 -97.5 238.5t-277.5 87.5q-182 0 -350 -113z" />
<glyph unicode="7" horiz-adv-x="1224" d="M78 1182v276q0 25 26 25h1016q25 0 25 -25v-67q0 -214 -101 -363q-29 -45 -92.5 -129t-116.5 -164t-94 -166q-98 -206 -98 -542q0 -27 -27 -27h-129q-24 0 -24 25q0 237 47 424t121 299q73 109 139 186q172 196 178 395h-690v-147q0 -25 -25 -25h-129q-26 0 -26 25z" />
<glyph unicode="8" horiz-adv-x="1245" d="M78 420q0 96 33.5 175.5t85.5 119.5q98 76 168 76v2q-62 0 -150 79q-88 82 -88 230t123 262q123 117 373 117q248 3 372 -115q123 -117 123 -268q0 -73 -29 -137t-73 -101q-82 -67 -135 -67v-2q65 0 166 -76q53 -40 86.5 -119t33.5 -176q0 -190 -151 -314 q-150 -120 -393 -120q-244 0 -394 120q-151 121 -151 314zM262 432q0 -129 98 -204.5t263 -75.5q164 0 261 76t97 204t-87.5 201.5t-244.5 73.5h-53q-159 0 -246.5 -72.5t-87.5 -202.5zM311 1079q0 -70 30 -121t81 -77q144 -66 299 -33q32 6 100 33q52 25 82.5 76.5 t30.5 121.5q0 106 -83 173t-228 67q-146 0 -229 -67t-83 -173z" />
<glyph unicode="9" horiz-adv-x="1253" d="M78 993q0 214 145 353q143 137 402 137q256 0 401 -201q148 -201 148 -543t-154 -549q-152 -204 -434 -204q-206 0 -330 106q-123 108 -123 281q0 24 25 24h125q24 0 24 -24q0 -84 70 -154q72 -72 209 -72q175 0 274.5 124t118.5 356q-166 -105 -404 -105 q-235 0 -368 127q-129 129 -129 344zM262 987q0 -150 97.5 -237.5t277.5 -87.5q183 0 350 112q-4 259 -101 401t-268 142q-165 0 -260.5 -90t-95.5 -240z" />
<glyph unicode=":" horiz-adv-x="350" d="M77 83q0 41 29 67q29 29 69 29t69 -29q29 -26 29 -67.5t-29 -70.5q-29 -26 -70 -26t-70 26q-27 30 -27 71zM77 900.5q0 40.5 27 70.5q29 29 70 29t70 -29t29 -70t-29 -70q-29 -26 -69 -26t-69 26q-29 29 -29 69.5z" />
<glyph unicode=";" horiz-adv-x="366" d="M78 80q0 42 28 69t74 27q109 0 109 -172q0 -91 -45.5 -145t-118.5 -54q-12 0 -12 11v34q0 6 10 8t27.5 9t31.5 24q27 27 27 80l-4 25q-10 -10 -30.5 -10t-42 8.5t-38 31t-16.5 54.5zM80 901q0 41 26 70q29 29 70 29t70 -29t29 -70t-29 -70q-29 -26 -70 -26t-70 26 q-26 29 -26 70z" />
<glyph unicode="&#x3c;" horiz-adv-x="897" d="M78 502v37q0 27 28 39l687 329q6 2 12 2q14 0 14 -18v-88q0 -29 -26 -41l-506 -242l506 -241q26 -9 26 -39v-88q0 -19 -14 -19q-6 0 -12 2l-687 328q-28 12 -28 39z" />
<glyph unicode="=" horiz-adv-x="866" d="M78 231v105q0 26 28 26h656q26 0 26 -26v-105q0 -26 -26 -26h-656q-28 0 -28 26zM78 715v102q0 29 28 29h656q26 0 26 -29v-102q0 -29 -26 -29h-656q-28 0 -28 29z" />
<glyph unicode="&#x3e;" horiz-adv-x="897" d="M78 152v88q0 30 28 39l504 241l-504 242q-28 16 -28 41v88q0 18 14 18q8 0 14 -2l687 -329q26 -12 26 -39v-37q0 -27 -26 -39l-687 -328q-6 -2 -14 -2q-14 0 -14 19z" />
<glyph unicode="?" horiz-adv-x="1191" d="M78 1022q0 195 125 326q126 135 381 135q254 0 391 -119q139 -121 139 -299q0 -94 -33.5 -173.5t-87.5 -129.5q-8 -7 -48 -43.5t-64 -56.5l-33 -27.5t-35 -29t-29 -25.5t-30.5 -30t-25 -29.5t-26 -36.5t-20.5 -38q-35 -72 -35 -161q0 -25 -26 -25h-142q-26 0 -26 25 q-1 77 19.5 147.5t48 118.5t74.5 98t80.5 77t84.5 65q168 125 168 251q0 128 -90 203q-89 74 -252 74q-156 0 -241 -80t-87 -217q0 -25 -25 -25h-129q-26 0 -26 25zM442 8q0 45 31 76q32 32 78.5 32t77.5 -32q31 -31 31 -76t-31 -76q-31 -32 -77.5 -32t-78.5 32 q-31 31 -31 76z" />
<glyph unicode="@" horiz-adv-x="1603" d="M78 479q0 326 235 561q237 240 547 240q316 0 490 -162q176 -159 176 -411q0 -251 -140 -400q-138 -147 -313 -147h-41q-82 0 -82 59q0 13 2 19l6 51q0 -5 -8.5 -19t-32.5 -37.5t-57 -44.5q-52 -34 -115 -34q-131 0 -212.5 89t-81.5 265q0 184 116 303q119 119 269 119 q152 0 198 -94l8 51q3 22 27 22h61q24 0 21 -24l-78 -604h45q110 0 193 114q84 119 84 314q0 198 -144 315q-140 119 -379 119q-276 0 -464 -203q-187 -199 -187 -465q0 -263 168 -428q169 -166 414 -166q115 0 219 18t149 40l41 18q26 16 35 -12l33 -72q3 -7 3.5 -12 t-2.5 -9.5t-7 -7.5t-11.5 -7t-14.5 -6.5t-18 -7.5t-20 -9q-44 -18 -157 -43q-129 -29 -250 -29q-309 0 -518 209q-207 207 -207 528zM573 518q0 -128 58 -186q59 -58 138 -57t144 67q66 69 72 131l27 211q-4 59 -53 98t-107 39q-110 0 -195 -88q-84 -87 -84 -215z" />
<glyph unicode="A" d="M74 25v104q0 25 24 25h138l440 1163h-111q-26 0 -26 24v105q0 24 26 24h279q48 0 74 -19.5t45 -68.5l471 -1228h139q24 0 24 -25v-104q0 -25 -24 -25h-463q-25 0 -25 25v104q0 25 25 25h143l-133 354h-571l-133 -354h143q25 0 25 -25v-104q0 -25 -25 -25h-461 q-24 0 -24 25zM602 649h463l-227 608h-7z" />
<glyph unicode="B" horiz-adv-x="1394" d="M98 25v104q0 25 27 25h156v1163h-156q-27 0 -27 24v105q0 24 27 24h659q202 0 317.5 -107t115.5 -286q0 -206 -183 -309q262 -77 262 -348q0 -196 -130.5 -308t-379.5 -112h-661q-27 0 -27 25zM459 154h313q165 0 254.5 70t89.5 210q0 256 -332 256h-325v-536zM459 825 h313q114 2 189 64.5t75 183.5q0 122 -78.5 183t-207.5 61h-291v-492z" />
<glyph unicode="C" horiz-adv-x="1540" d="M98 741q0 340 201 541q204 201 487 201q316 0 461 -219l-2 182q-3 24 25 24h114q27 0 27 -24v-447q0 -26 -27 -26h-129q-24 0 -24 26v19q0 92 -129 194q-127 103 -318 103q-189 0 -344 -152q-151 -151 -151 -426t153 -428q154 -151 361 -151q226 0 352 100q99 74 148 158 q16 31 38 12l86 -57q10 -7 10 -20t-10 -32q-21 -52 -106 -137q-59 -59 -125.5 -98t-169.5 -68q-108 -30 -229 -30q-300 0 -500 209q-199 208 -199 546z" />
<glyph unicode="D" horiz-adv-x="1515" d="M88 25v104q0 25 25 25h157v1163h-157q-25 0 -25 24v105q0 24 25 24h553q341 0 540 -196q201 -195 201 -537q0 -341 -190 -540q-191 -197 -517 -197h-587q-25 0 -25 25zM449 154h202q570 3 570 579q0 279 -148 431.5t-428 152.5h-196v-1163z" />
<glyph unicode="E" horiz-adv-x="1337" d="M98 25v104q0 25 27 25h156v1163h-156q-27 0 -27 24v105q0 24 27 24h1087q27 0 27 -24v-330q0 -26 -27 -26h-110q-25 0 -25 26v201h-618v-508h518q27 0 27 -25v-104q0 -25 -27 -25h-518v-501h616v200q0 25 27 25h110q27 0 27 -25v-329q0 -25 -27 -25h-1087q-27 0 -27 25z " />
<glyph unicode="F" horiz-adv-x="1300" d="M98 25v104q0 25 27 25h156v1163h-156q-27 0 -27 24v105q0 24 27 24h1051q26 0 26 -24v-330q0 -26 -26 -26h-111q-25 0 -25 26v201h-581v-508h481q27 0 27 -25v-104q0 -25 -27 -25h-481v-501h231q25 0 25 -25v-104q0 -25 -25 -25h-565q-27 0 -27 25z" />
<glyph unicode="G" horiz-adv-x="1536" d="M98 743q0 229 101 400q103 174 258 256q159 84 340 84q311 0 450 -195l-2 158q-3 24 25 24h114q27 0 27 -24v-422q0 -25 -27 -25h-129q-24 0 -24 25v25q0 90 -125 178q-122 88 -315 88q-192 0 -349 -160q-153 -156 -153 -424q0 -265 155 -420q156 -153 349 -153 q335 0 471 207v159h-381q-25 0 -25 27v94q0 25 25 25h530q25 0 25 -25v-620q0 -25 -25 -25h-108q-27 0 -27 25l2 141q-180 -180 -481 -180q-300 0 -500 209q-201 210 -201 548z" />
<glyph unicode="H" horiz-adv-x="1679" d="M98 25v104q0 25 27 25h156v1163h-156q-27 0 -27 24v105q0 24 27 24h491q27 0 27 -24v-105q0 -24 -27 -24h-157v-512h762v512h-158q-25 0 -25 24v105q0 24 25 24h493q25 0 25 -24v-105q0 -24 -25 -24h-157v-1163h157q25 0 25 -25v-104q0 -25 -25 -25h-493q-25 0 -25 25 v104q0 25 25 25h158v501h-762v-501h157q27 0 27 -25v-104q0 -25 -27 -25h-491q-27 0 -27 25z" />
<glyph unicode="I" horiz-adv-x="741" d="M98 25v104q0 25 27 25h156v1163h-156q-27 0 -27 24v105q0 24 27 24h491q27 0 27 -24v-105q0 -24 -27 -24h-157v-1163h157q27 0 27 -25v-104q0 -25 -27 -25h-491q-27 0 -27 25z" />
<glyph unicode="J" horiz-adv-x="991" d="M98 25v104q0 25 27 25q221 0 313 91t92 292v780h-155q-27 0 -27 24v105q0 24 27 24h491q27 0 27 -24v-105q0 -24 -27 -24h-157v-762q0 -297 -139.5 -426t-444.5 -129q-27 0 -27 25z" />
<glyph unicode="K" horiz-adv-x="1562" d="M98 25v104q0 25 27 25h156v1163h-156q-27 0 -27 24v105q0 24 27 24h459q24 0 24 -24v-105q0 -24 -24 -24h-125v-576h215q215 0 321 127q107 128 107 449h-139q-25 0 -25 24v105q0 24 25 24h456q25 0 25 -24v-105q0 -24 -25 -24h-141q0 -495 -279 -645q45 -22 71.5 -55.5 t64.5 -108.5l178 -354h125q24 0 24 -25v-104q0 -25 -24 -25h-178q-74 0 -123 98l-193 391q-2 3 -8 14.5t-7.5 14t-7 11.5t-8.5 11.5t-9 9t-12.5 10t-15.5 8.5t-20 10q-44 18 -108 18h-289v-442h188q27 0 27 -25v-104q0 -25 -27 -25h-522q-27 0 -27 25z" />
<glyph unicode="L" horiz-adv-x="1372" d="M98 25v104q0 25 27 25h156v1163h-156q-27 0 -27 24v105q0 24 27 24h489q27 0 27 -26v-101q0 -26 -27 -26h-155v-1163h651v200q0 25 27 25h110q25 0 25 -25v-327q0 -27 -27 -27h-1120q-27 0 -27 25z" />
<glyph unicode="M" horiz-adv-x="1882" d="M98 25v104q0 25 27 25h156v1163h-156q-27 0 -27 24v105q0 24 27 24h315q71 0 97 -69l305 -737l96 -258h8q81 221 94 253l308 742q26 69 98 69h313q25 0 25 -24v-105q0 -24 -25 -24h-157v-1163h157q25 0 25 -25v-104q0 -25 -25 -25h-473q-24 0 -24 25v104q0 25 24 25h137 v1020h-2l-389 -967q-24 -62 -90 -62t-90 62l-389 967h-4v-1020h137q27 0 27 -25v-104q0 -25 -27 -25h-471q-27 0 -27 25z" />
<glyph unicode="N" horiz-adv-x="1679" d="M98 25v104q0 25 27 25h156v1163h-156q-27 0 -27 24v105q0 24 27 24h287q58 0 104 -69l584 -914l117 -198h4v1028h-158q-25 0 -25 24v105q0 24 25 24h493q25 0 25 -24v-105q0 -24 -25 -24h-157v-1292q0 -25 -27 -25h-110q-37 0 -60.5 15t-44.5 48l-592 926l-102 172h-4 v-1007h157q27 0 27 -25v-104q0 -25 -27 -25h-491q-27 0 -27 25z" />
<glyph unicode="O" horiz-adv-x="1624" d="M98 743q0 338 211 537q212 203 504 203q293 0 502 -203q209 -200 209 -539q0 -334 -203 -546q-200 -209 -508 -209q-305 0 -510 211t-205 546zM291 737q0 -275 155 -430t367 -155q210 0 365 155t155 430t-159 428q-156 156 -361 156q-203 0 -362 -156 q-160 -154 -160 -428z" />
<glyph unicode="P" horiz-adv-x="1347" d="M98 25v104q0 25 27 25h156v1163h-156q-27 0 -27 24v105q0 24 27 24h631q215 0 354 -127t139 -339q0 -214 -135 -331.5t-381 -117.5h-274v-401h200q25 0 25 -25v-104q0 -25 -25 -25h-534q-27 0 -27 25zM459 700h266q344 0 344 304q0 153 -94 233t-248 80h-268v-617z" />
<glyph unicode="Q" horiz-adv-x="1574" d="M98 743q0 338 211 537q212 203 504 203q293 0 502 -203q209 -200 209 -528q0 -326 -178 -531t-459 -229q119 -78 340 -78q115 0 211 41q22 10 28 -8l31 -82q6 -21 -14 -33q-87 -39 -183 -51q-48 -6 -92.5 -6t-85.5 6q-83 12 -148 32t-114 46q-56 30 -105.5 67t-71.5 59.5 t-17 22.5q-253 47 -410 244q-158 202 -158 491zM291 737q0 -274 155 -426q156 -153 365 -153q211 0 367 153q155 152 155 426q0 276 -159 426q-158 152 -361 152q-195 0 -352 -139q-77 -71 -123.5 -186.5t-46.5 -252.5z" />
<glyph unicode="R" horiz-adv-x="1464" d="M98 25v104q0 25 27 25h156v1163h-156q-27 0 -27 24v105q0 24 27 24h631q219 0 356 -116q137 -113 137 -326q0 -322 -301 -401q35 -26 96 -138l173 -335h124q25 0 25 -25v-104q0 -25 -25 -25h-178q-74 0 -123 98l-192 391q-26 54 -54 78t-75 25h-260v-438h184q25 0 25 -25 v-104q0 -25 -25 -25h-518q-27 0 -27 25zM459 737h262q348 0 348 285q0 295 -348 295h-262v-580z" />
<glyph unicode="S" horiz-adv-x="1363" d="M98 25v479q0 26 27 26h129q25 0 25 -26v-43q0 -40 47 -105q43 -59 94 -104q50 -44 129.5 -72t167.5 -28q158 0 247 65t89 182q0 54 -31 95t-84 67.5t-121 48t-143.5 41.5t-151 42.5t-143.5 55.5t-121 76t-84 109.5t-31 150.5q0 171 129 285q131 113 351 113 q277 0 405 -162l-4 127q0 25 27 25h114q25 0 25 -25v-447q0 -24 -25 -24h-129q-24 0 -24 24v58q0 85 -94 170q-95 86 -277 86q-134 0 -217.5 -64.5t-83.5 -165.5q0 -57 31.5 -100.5t85.5 -72t123 -51.5t146 -43t154 -42.5t146 -54.5t123 -73t85.5 -104.5t31.5 -144.5 q0 -180 -129 -297q-128 -116 -385 -116q-191 0 -312 75q-123 77 -178 164l2 -200q0 -25 -24 -25h-115q-27 0 -27 25z" />
<glyph unicode="T" horiz-adv-x="1488" d="M98 1100v344q0 26 29 26h1235q29 0 29 -26v-344q0 -29 -29 -29h-117q-26 0 -26 29v217h-383v-1163h143q29 0 29 -27v-100q0 -27 -29 -27h-477q-27 0 -27 27v100q0 27 27 27h155v1163h-387v-217q0 -29 -28 -29h-115q-29 0 -29 29z" />
<glyph unicode="U" horiz-adv-x="1667" d="M98 1341v105q0 24 27 24h491q27 0 27 -24v-105q0 -24 -27 -24h-157v-772q0 -393 377 -393q188 0 280 98.5t92 281.5v785h-157q-25 0 -25 24v105q0 24 25 24h493q25 0 25 -24v-105q0 -24 -25 -24h-158v-766q0 -275 -143 -420t-409 -145q-265 0 -409 145t-144 420v766h-156 q-27 0 -27 24z" />
<glyph unicode="V" horiz-adv-x="1736" d="M98 1341v105q0 24 27 24h461q24 0 24 -24v-105q0 -24 -24 -24h-140l416 -1100h12l416 1100h-139q-27 0 -27 24v105q0 24 27 24h461q26 0 26 -24v-105q0 -24 -26 -24h-135l-473 -1235q-14 -44 -34.5 -63t-60.5 -19h-80q-37 0 -57.5 18t-38.5 64l-477 1235h-131 q-27 0 -27 24z" />
<glyph unicode="W" horiz-adv-x="2240" d="M78 1341v105q0 24 26 24h461q27 0 27 -24v-105q0 -24 -27 -24h-143l317 -1100h13l284 1253h164l287 -1253h12l318 1100h-146q-24 0 -24 24v105q0 24 24 24h463q25 0 25 -24v-105q0 -24 -25 -24h-131l-375 -1235q-24 -82 -96 -82h-78q-75 0 -96 82l-238 1040h-6 l-233 -1040q-21 -82 -99 -82h-75q-72 0 -99 82l-375 1235h-129q-26 0 -26 24z" />
<glyph unicode="X" horiz-adv-x="1667" d="M98 25v104q0 25 27 25h158l442 587l-444 576h-156q-27 0 -27 24v105q0 24 27 24h491q27 0 27 -24v-105q0 -24 -27 -24h-139l348 -463l349 463h-125q-25 0 -25 24v105q0 24 25 24h493q25 0 25 -24v-105q0 -24 -25 -24h-170l-442 -576l434 -587h164q24 0 24 -25v-104 q0 -25 -24 -25h-494q-24 0 -24 25v104q0 25 24 25h135l-340 477l-350 -477h137q27 0 27 -25v-104q0 -25 -27 -25h-491q-27 0 -27 25z" />
<glyph unicode="Y" horiz-adv-x="1554" d="M98 1341v105q0 24 27 24h461q24 0 24 -24v-105q0 -24 -24 -24h-135l321 -569h12l320 569h-135q-25 0 -25 24v105q0 24 25 24h463q24 0 24 -24v-105q0 -24 -24 -24h-142q-75 -108 -262 -434q-160 -287 -162 -289v-440h158q25 0 25 -25v-104q0 -25 -25 -25h-494 q-24 0 -24 25v104q0 25 24 25h158v438l-82 141q-275 487 -342 584h-139q-27 0 -27 24z" />
<glyph unicode="Z" horiz-adv-x="1312" d="M98 27v88q0 19 41 69l832 1133h-701v-166q0 -29 -28 -29h-115q-29 0 -29 29v293q0 26 29 26h1061q26 0 26 -26v-76q0 -35 -40 -84l-832 -1130h702v165q0 29 27 29h117q26 0 26 -29v-292q0 -27 -26 -27h-1061q-29 0 -29 27z" />
<glyph unicode="[" horiz-adv-x="622" d="M78 -121v1665q0 25 26 25h412q29 0 29 -29v-106q0 -27 -29 -27h-266v-1391h266q29 0 29 -28v-107q0 -26 -29 -26h-412q-26 0 -26 24z" />
<glyph unicode="\" horiz-adv-x="829" d="M78 1540q0 16 20 16h121q27 0 33 -24l496 -1659q2 -4 2 -10q0 -15 -21 -15h-121q-24 0 -33 25l-495 1659q-2 2 -2 8z" />
<glyph unicode="]" horiz-adv-x="622" d="M78 -12q0 28 28 28h267v1391h-267q-28 0 -28 27v106q0 29 28 29h412q27 0 27 -25v-1665q0 -24 -27 -24h-412q-28 0 -28 26v107z" />
<glyph unicode="_" horiz-adv-x="1134" d="M78 -74q0 27 28 27h924q27 0 27 -27v-104q0 -27 -27 -27h-924q-28 0 -28 27v104z" />
<glyph unicode="`" horiz-adv-x="595" d="M78 1487l65 76q17 20 39 4l330 -291q22 -14 4 -39l-51 -59q-20 -23 -39 -4l-344 274q-19 13 -4 39z" />
<glyph unicode="a" horiz-adv-x="1187" d="M78 268q0 164 143 245t406 81h172v24q0 256 -267 256q-124 0 -180 -24q-53 -20 -80 -37q-7 -5 -18.5 -12t-15.5 -10q-31 -25 -45 -5l-58 72q-16 16 4 33q32 43 144 88q107 43 256 43q430 0 430 -410v-475h114q25 0 25 -24v-88q0 -25 -25 -25h-178q-88 0 -88 86v104h-4 q-150 -206 -399 -206q-149 0 -242.5 77.5t-93.5 206.5zM254 293q0 -72 59 -118t152 -46q199 0 334 176v166h-162q-129 0 -203.5 -13t-126.5 -52q-53 -41 -53 -113z" />
<glyph unicode="b" horiz-adv-x="1255" d="M78 1358v88q0 24 26 24h252q27 0 27 -24v-545l-6 -80h6q37 89 124.5 145t209.5 56q207 0 332 -143q127 -142 127 -375q0 -231 -129 -375q-125 -143 -332 -143q-123 0 -211 58t-127 149h-2v-168q0 -25 -27 -25h-104q-25 0 -25 25v1308h-115q-26 0 -26 25zM379 506 q0 -171 88 -275q89 -102 227 -102q137 0 225.5 105.5t88.5 271.5t-90 270q-89 103 -226 103q-135 0 -223 -101q-90 -104 -90 -272z" />
<glyph unicode="c" horiz-adv-x="1103" d="M78 506q0 240 143 377q145 139 354 139q207 0 316 -152h2l-2 113q0 27 27 27h77q25 0 25 -27v-348q0 -25 -25 -25h-94q-24 0 -24 25v35q-3 75 -84 141q-83 68 -209 68t-230 -101t-104 -274t102 -275q100 -100 230 -100q126 0 215 53q93 59 121 107q14 23 34 6l60 -57 q12 -8 12 -20q0 -4 -2 -10q-6 -20 -47 -61q-47 -58 -155 -111q-102 -50 -224 -50h-14q-217 0 -361 141q-143 140 -143 379z" />
<glyph unicode="d" horiz-adv-x="1253" d="M78 504q0 233 127 375q128 143 336 143q122 0 207 -55.5t124 -145.5h2q-2 27 -2 68v444h-114q-27 0 -27 25v88q0 24 27 24h254q24 0 24 -24v-1309h115q25 0 25 -24v-88q0 -25 -25 -25h-178q-48 0 -69 19.5t-21 66.5v115h-2q-34 -91 -126 -153t-216 -62q-206 0 -334 143 q-127 145 -127 375zM246 508q0 -171 88 -275t227 -104q138 0 225.5 104.5t87.5 274.5q0 169 -90 270q-88 101 -223 101q-134 0 -225 -101q-90 -104 -90 -270z" />
<glyph unicode="e" horiz-adv-x="1101" d="M78 506q0 240 143 377q145 139 350 139q208 0 328 -135q119 -131 119 -361v-16q0 -27 -29 -27h-737q9 -172 106 -262q103 -92 226 -92q124 0 213 53q92 55 121 105q15 21 36 6l56 -55q13 -13 13 -25q0 -4 -2 -8q-6 -15 -46 -58q-47 -58 -155 -111q-102 -50 -224 -50h-14 q-217 0 -361 141q-143 140 -143 379zM256 608h592q-6 128 -80.5 203.5t-196.5 75.5q-127 0 -212.5 -72t-102.5 -207z" />
<glyph unicode="f" horiz-adv-x="792" d="M78 895v88q0 25 26 25h117v127q0 169 86.5 258.5t243.5 89.5q116 0 207 -82q13 -11 13 -21q0 -7 -7 -14l-49 -63q-20 -20 -35 -5q-48 39 -123 39q-74 0 -121 -53q-45 -51 -45 -151v-125h262q27 0 27 -25v-88q0 -25 -27 -25h-262v-733h180q25 0 25 -24v-88q0 -25 -25 -25 h-462q-27 0 -27 25v88q0 24 27 24h112v733h-117q-26 0 -26 25z" />
<glyph unicode="g" horiz-adv-x="1251" d="M78 508q0 231 127 373q129 141 334 141q122 0 211 -56t129 -145h4l-2 162q0 25 24 25h242q24 0 24 -25v-88q0 -25 -24 -25h-111v-909q0 -215 -130.5 -327.5t-356.5 -112.5q-63 0 -116 8t-71 14t-53 19q-47 16 -96 45q-72 48 -72 75q0 6 4 11l54 76q12 18 34 2 q2 -1 17.5 -12.5t32.5 -23t48.5 -25.5t65.5 -23q71 -19 150 -19q153 0 239 72.5t86 220.5v234q-39 -92 -125.5 -150.5t-207.5 -58.5q-209 0 -336 145q-125 143 -125 377zM246 504q0 -166 90 -273q88 -102 225 -102t225 103.5t88 273.5q0 169 -88 271t-225 102 q-136 0 -225 -103q-90 -104 -90 -272z" />
<glyph unicode="h" horiz-adv-x="1271" d="M78 25v88q0 24 26 24h113v1196h-113q-26 0 -26 25v88q0 24 26 24h258q25 0 25 -24v-457q0 -73 -8 -125h4q103 158 319 158q163 0 256 -95.5t95 -260.5v-529h114q27 0 27 -24v-88q0 -25 -27 -25h-194q-88 0 -88 86v539q0 119 -58 184t-168 65q-59 -2 -103.5 -16.5 t-63 -29.5t-38.5 -36.5t-26 -25.5q-30 -44 -41 -68v-561h109q26 0 26 -24v-88q0 -25 -26 -25h-392q-26 0 -26 25z" />
<glyph unicode="i" horiz-adv-x="600" d="M78 25v88q0 24 26 24h113v733h-113q-26 0 -26 25v88q0 25 26 25h258q25 0 25 -25v-846h109q26 0 26 -24v-88q0 -25 -26 -25h-392q-26 0 -26 25zM185 1228.5q0 47.5 32 82.5q35 35 82.5 35t79.5 -35q35 -35 35 -82.5t-35 -79.5q-32 -32 -79.5 -32t-82.5 32 q-32 32 -32 79.5z" />
<glyph unicode="j" horiz-adv-x="667" d="M18 -360l48 61q19 19 36 4q48 -39 111 -39q174 0 174 205v999h-115q-24 0 -24 25v88q0 25 24 25h260q25 0 25 -25v-1114q0 -169 -86.5 -258.5t-243.5 -89.5q-115 0 -204 80q-13 12 -13 23q0 8 8 16zM361 1231.5q0 47.5 32 79.5q35 35 82.5 35t79.5 -35q35 -32 35 -79.5 t-35 -82.5q-32 -32 -79.5 -32t-82.5 32q-32 35 -32 82.5z" />
<glyph unicode="k" horiz-adv-x="1257" d="M78 25v88q0 24 26 24h113v1196h-113q-26 0 -26 25v88q0 24 26 24h258q25 0 25 -24v-918l373 342h-74q-24 0 -24 25v88q0 25 24 25h393q25 0 25 -25v-88q0 -25 -25 -25h-133l-250 -219l383 -514h88q25 0 25 -24v-88q0 -25 -25 -25h-110q-64 0 -109 63l-362 492l-199 -184 v-234h109q26 0 26 -24v-88q0 -25 -26 -25h-392q-26 0 -26 25z" />
<glyph unicode="l" horiz-adv-x="600" d="M78 25v88q0 24 26 24h113v1196h-113q-26 0 -26 25v88q0 24 26 24h228q55 0 55 -51v-1282h109q26 0 26 -24v-88q0 -25 -26 -25h-392q-26 0 -26 25z" />
<glyph unicode="m" horiz-adv-x="1906" d="M78 25v88q0 24 26 24h113v733h-113q-26 0 -26 25v88q0 25 26 25h201q36 0 51 -13.5t15 -48.5l-4 -102h6q108 178 329 178q225 0 308 -170q117 170 329 170q163 0 255 -95.5t92 -260.5l2 -529h114q27 0 27 -24v-88q0 -25 -27 -25h-194q-48 0 -69 19.5t-21 66.5v539 q0 120 -57.5 184.5t-166.5 64.5q-162 0 -254 -141q13 -41 13 -82v-514h114q25 0 25 -24v-88q0 -25 -25 -25h-391q-26 0 -26 25v88q0 24 26 24h109v488q0 119 -58 184t-168 65q-59 -2 -103.5 -16.5t-63 -29.5t-38.5 -36.5t-26 -25.5q-30 -44 -41 -68v-561h100q25 0 25 -24 v-88q0 -25 -25 -25h-383q-26 0 -26 25z" />
<glyph unicode="n" horiz-adv-x="1271" d="M78 25v88q0 24 26 24h113v733h-113q-26 0 -26 25v88q0 25 26 25h240q27 0 27 -25l-4 -139h6q108 178 329 178q163 0 256 -95.5t95 -260.5v-529h114q27 0 27 -24v-88q0 -25 -27 -25h-194q-88 0 -88 86v539q0 119 -58 184t-168 65q-157 0 -245 -129q-18 -24 -27 -45v-563 h109q26 0 26 -24v-88q0 -25 -26 -25h-392q-26 0 -26 25z" />
<glyph unicode="o" horiz-adv-x="1177" d="M78 506q0 238 145 377t365 139t364 -141q146 -140 146 -375q0 -233 -144 -377q-143 -143 -366 -143t-367 141q-143 143 -143 379zM250 506q0 -169 98 -273t240 -104q143 0 241 104q99 105 99 273q0 169 -101 270q-100 103 -237 103t-240 -103q-100 -100 -100 -270z" />
<glyph unicode="p" horiz-adv-x="1255" d="M78 -348q0 24 26 24h115v1194h-110q-27 0 -27 25v88q0 25 27 25h239q27 0 27 -25l-2 -162h2q40 89 129 145t211 56q208 0 334 -141q127 -139 127 -373t-125 -377q-127 -145 -334 -145q-122 0 -208.5 55.5t-125.5 144.5h-6q6 -65 6 -94v-416h133q27 0 27 -24v-88 q0 -25 -27 -25h-412q-26 0 -26 25v88zM379 500q0 -180 92 -275q96 -96 225 -96q133 0 222 102q90 107 90 273q0 168 -90 272q-89 103 -222 103q-134 0 -225 -101q-92 -103 -92 -278z" />
<glyph unicode="q" horiz-adv-x="1255" d="M78 508q0 234 127 373q129 141 334 141q122 0 210.5 -56t129.5 -143h4l-2 160q0 25 24 25h107q24 0 24 -25v-1307h115q25 0 25 -24v-88q0 -25 -25 -25h-412q-26 0 -26 25v88q0 24 26 24h133v426l7 93h-7q-39 -91 -126.5 -150t-206.5 -59q-209 0 -336 145 q-125 143 -125 377zM246 504q0 -166 90 -273q88 -102 225 -102t225 103.5t88 273.5q0 169 -88 271t-225 102q-136 0 -225 -103q-90 -104 -90 -272z" />
<glyph unicode="r" horiz-adv-x="862" d="M78 25v88q0 24 26 24h113v733h-113q-26 0 -26 25v88q0 25 26 25h240q27 0 27 -25v-256h6q6 33 44 90.5t79 93.5q49 42 133 71.5t182 29.5q27 0 27 -27v-108q0 -27 -27 -27h-43q-176 0 -280 -113q-105 -114 -105 -256v-344h109q26 0 26 -24v-88q0 -25 -26 -25h-392 q-26 0 -26 25z" />
<glyph unicode="s" horiz-adv-x="995" d="M86 27v307q0 26 27 26h80q28 0 28 -26v-41q20 -60 86 -113q76 -61 195 -61q229 0 229 160q0 32 -22.5 57.5t-69.5 45t-88.5 32.5t-111.5 31t-107 30q-97 31 -157 96.5t-60 159.5q0 132 95.5 211.5t246.5 79.5q203 0 291 -119h4q-1 22 -2 40.5t-2 26.5v9q0 27 26 27h66 q26 0 26 -27v-285q0 -26 -26 -26h-80q-29 0 -29 26v29q0 55 -65 108q-65 56 -166 56q-102 0 -160 -43q-57 -42 -57 -113q0 -66 63 -106q67 -39 158 -60q163 -36 228 -64q170 -72 177 -228v-13q0 -110 -94 -192q-91 -82 -283 -82q-139 0 -219 51q-82 52 -102 96h-4 q1 -30 2 -55.5t1.5 -37.5t0.5 -13q0 -27 -29 -27h-69q-27 0 -27 27z" />
<glyph unicode="t" horiz-adv-x="821" d="M78 897v84q0 27 28 27h115v206q0 29 29 29h115q26 0 26 -29v-206h260q29 0 29 -27v-84q0 -27 -29 -27h-260v-532q0 -100 45.5 -153.5t122.5 -53.5q78 0 117 39q22 19 37 -2l49 -64q8 -8 8 -16q0 -10 -12 -22q-89 -80 -228 -80q-135 0 -223 88q-86 89 -86 260v536h-115 q-28 0 -28 27z" />
<glyph unicode="u" horiz-adv-x="1245" d="M51 895v88q0 25 25 25h196q88 0 88 -86v-539q0 -119 58.5 -184.5t167.5 -65.5q150 0 235 111q37 46 37 63v563h-110q-25 0 -25 25v88q0 25 25 25h253q25 0 25 -25v-846h115q26 0 26 -24v-88q0 -25 -26 -25h-178q-89 0 -89 86v76h-6q-83 -176 -319 -176q-163 0 -258.5 97 t-97.5 259v528h-117q-25 0 -25 25z" />
<glyph unicode="v" horiz-adv-x="1204" d="M20 895v88q0 25 25 25h381q25 0 25 -25v-88q0 -25 -25 -25h-90l262 -690h4l266 690h-92q-24 0 -24 25v88q0 25 24 25h381q27 0 27 -25v-88q0 -25 -27 -25h-113l-329 -833q-12 -37 -47 -37h-138q-20 0 -29 7t-16 30l-325 833h-115q-25 0 -25 25z" />
<glyph unicode="w" horiz-adv-x="1662" d="M29 895v88q0 25 24 25h383q25 0 25 -25v-88q0 -25 -25 -25h-94l207 -690h4l180 690h-80q-24 0 -24 25v88q0 25 24 25h361q24 0 24 -25v-88q0 -25 -24 -25h-80l180 -690h4l205 690h-92q-27 0 -27 25v88q0 25 27 25h381q24 0 24 -25v-88q0 -25 -24 -25h-113l-270 -827 q-15 -43 -49 -43h-121q-43 0 -49 43l-174 686h-5l-174 -686q-9 -43 -51 -43h-119q-37 0 -49 43l-270 827h-115q-24 0 -24 25z" />
<glyph unicode="x" horiz-adv-x="1140" d="M45 25v88q0 24 25 24h98l299 377l-299 356h-98q-25 0 -25 25v88q0 25 25 25h385q24 0 24 -25v-88q0 -25 -24 -25h-97l242 -292l207 292h-82q-25 0 -25 25v88q0 25 25 25h346q25 0 25 -25v-88q0 -25 -25 -25h-110l-279 -378l299 -355h90q25 0 25 -24v-88q0 -25 -25 -25 h-385q-24 0 -24 25v88q0 24 24 24h102l-241 297l-225 -297h94q24 0 24 -24v-88q0 -25 -24 -25h-346q-25 0 -25 25z" />
<glyph unicode="y" horiz-adv-x="1208" d="M31 895v88q0 25 24 25h371q27 0 27 -25v-88q0 -25 -27 -25h-84l264 -694h4l246 694h-92q-25 0 -25 25v88q0 25 25 25h381q24 0 24 -25v-88q0 -25 -24 -25h-115l-364 -1001q-70 -190 -143.5 -269t-196.5 -79q-126 0 -215 80q-22 22 -7 37l52 65q18 15 37 2q47 -39 113 -39 h4q68 1 110 47q46 46 86 158l55 152h-26q-34 0 -54 51l-313 796h-113q-24 0 -24 25z" />
<glyph unicode="z" horiz-adv-x="1062" d="M78 25v84q0 38 31 69l663 692h-555v-157q0 -25 -24 -25h-89q-26 0 -26 25v270q0 25 26 25h854q27 0 27 -25v-72q0 -39 -33 -65l-671 -709h563v162q0 25 26 25h88q27 0 27 -25v-274q0 -25 -27 -25h-854q-26 0 -26 25z" />
<glyph unicode="{" horiz-adv-x="698" d="M78 682v63q0 27 35 27q34 3 84 68q51 63 51 170v233q0 324 344 324q26 0 26 -27v-106q0 -27 -26 -27q-91 0 -131.5 -42t-40.5 -136v-217q0 -75 -32 -142.5t-69 -95.5l-32 -26v-70q84 -58 119 -166q14 -43 14 -96v-230q0 -94 40 -134t132 -40q26 0 26 -26v-107 q0 -26 -26 -26q-344 0 -344 319v246q0 105 -51 168q-49 67 -84 67t-35 29z" />
<glyph unicode="|" horiz-adv-x="327" d="M78 -244v1776q0 24 26 24h121q25 0 25 -24v-1776q0 -24 -25 -24h-121q-26 0 -26 24z" />
<glyph unicode="}" horiz-adv-x="698" d="M78 -14q0 26 28 26q91 0 132 40.5t41 133.5v230q0 170 133 262v70q-15 8 -23.5 14t-30 32.5t-43.5 67.5q-36 65 -36 150v217q0 94 -41 136t-132 42q-28 0 -28 27v106q0 27 28 27q345 0 345 -324v-233q0 -106 49 -170q50 -65 84 -68q34 0 34 -27v-63q0 -29 -34 -29 q-32 0 -84 -67q-49 -64 -49 -168v-246q0 -319 -345 -319q-28 0 -28 26v107z" />
<glyph unicode="&#xa1;" horiz-adv-x="372" d="M78 999q0 45 31 76q32 32 78 32t77 -32q31 -31 31 -76t-31 -77q-31 -31 -77 -31t-78 31q-31 32 -31 77zM100 -524v1204q0 25 25 25h123q24 0 24 -25v-1204q0 -25 -24 -25h-123q-25 0 -25 25z" />
<glyph unicode="&#xa2;" horiz-adv-x="1103" d="M78 623q0 216 121 352q125 137 301 158v145q0 25 26 25h88q25 0 25 -25v-150q185 -27 252 -143h6l-6 115q0 24 27 24h77q25 0 25 -24v-348q0 -25 -25 -25h-94q-24 0 -24 25v34q-3 74 -84 140q-82 67 -209 67t-230 -100q-104 -101 -104 -272q0 -173 102 -275 q100 -100 230 -100q126 0 215 53q93 59 121 107q14 20 34 6l60 -60q10 -8 11 -17t-13 -31.5t-49 -57.5q-35 -38 -127 -86q-89 -47 -195 -56v-106q0 -25 -25 -25h-90q-24 0 -24 25v111q-184 24 -303 161t-119 353z" />
<glyph unicode="&#xa3;" horiz-adv-x="1224" d="M78 631v76q0 24 26 24h150q-92 157 -92 293q0 209 143 334t365 125q220 0 344.5 -113t124.5 -309v-33q0 -24 -27 -24h-125q-26 0 -26 24v35q0 115 -78 187.5t-211 72.5q-134 0 -230 -78q-94 -76 -94 -233q0 -76 25 -131l33 -64q5 -9 27.5 -45.5t25.5 -40.5h389 q26 0 26 -24v-76q0 -25 -26 -25h-330q19 -68 19 -119q0 -183 -187 -333h772q25 0 25 -25v-104q0 -25 -25 -25h-999q-25 0 -25 25v98q0 29 23 45q58 28 108 78q46 46 74 82q83 126 23 278h-222q-26 0 -26 25z" />
<glyph unicode="&#xa5;" horiz-adv-x="1554" d="M98 1341v105q0 24 27 24h461q24 0 24 -24v-105q0 -24 -24 -24h-135l321 -569h12l320 569h-135q-25 0 -25 24v105q0 24 25 24h463q24 0 24 -24v-105q0 -24 -24 -24h-142l-258 -459h164q25 0 25 -24v-80q0 -27 -25 -27h-248l-61 -102v-54h223q25 0 25 -24v-80 q0 -27 -25 -27h-244v-286h158q25 0 25 -25v-104q0 -25 -25 -25h-494q-24 0 -24 25v104q0 25 24 25h158v286h-256q-24 0 -24 27v80q0 24 24 24h232v54l-60 102h-254q-26 0 -26 27v80q0 24 26 24h172l-258 459h-139q-27 0 -27 24z" />
<glyph unicode="&#xa6;" horiz-adv-x="327" d="M78 -244v668q0 25 26 25h121q25 0 25 -25v-668q0 -24 -25 -24h-121q-26 0 -26 24zM78 864v668q0 24 26 24h121q25 0 25 -24v-668q0 -24 -25 -24h-121q-26 0 -26 24z" />
<glyph unicode="&#xa7;" horiz-adv-x="1323" d="M78 45q0 25 26 25h129q25 0 25 -25v-45q6 -53 96 -166q52 -62 145 -101.5t220 -39.5q139 0 226 66t87 182q0 37 -13.5 68.5t-36 54.5t-58 43.5t-71.5 34.5t-86 29t-92.5 25.5t-98.5 25.5t-97 28q-112 36 -186 78t-121 114q-49 76 -49 199q0 119 80 219q-80 89 -80 225 q0 171 129 285q131 113 350 113q278 0 406 -162l-4 127q0 25 26 25h115q24 0 24 -25v-447q0 -24 -24 -24h-129q-25 0 -25 24v52q0 85 -92 174q-91 88 -278 88q-133 0 -217.5 -63.5t-84.5 -155.5q0 -89 52 -144q46 -49 117.5 -77.5t195.5 -61.5q205 -52 277 -80 q203 -76 260 -207q24 -57 24 -127q0 -151 -82 -245q82 -85 82 -213q0 -180 -129 -297t-385 -117q-189 0 -311 76q-125 75 -176 161h-4l4 -198q3 -25 -25 -25h-115q-26 0 -26 25v479zM319 627q-1 -74 43 -127q28 -32 78.5 -59t92.5 -41.5t110 -34.5q260 -67 340 -111 q49 58 49 145q0 86 -74 142q-71 59 -163 80q-325 77 -426 135q-49 -55 -50 -129z" />
<glyph unicode="&#xa8;" horiz-adv-x="641" d="M71 1224.5q0 36.5 25 61.5q25 26 61.5 26t61.5 -26q26 -25 26 -61.5t-26 -61.5q-25 -25 -61.5 -25t-61.5 25t-25 61.5zM395 1224.5q0 36.5 25 61.5q25 26 61.5 26t61.5 -26q26 -25 26 -61.5t-26 -61.5q-25 -25 -61.5 -25t-61.5 25t-25 61.5z" />
<glyph unicode="&#xa9;" horiz-adv-x="1372" d="M78 713q0 248 180 428t428 180t428 -180t180 -428t-180 -428q-181 -181 -428 -181t-428 181q-180 180 -180 428zM186 713q0 -206 146 -355q148 -145 354 -145t354 145q148 148 148 355t-148 352q-147 147 -354 147t-354 -147q-146 -146 -146 -352zM344 719q0 168 98 262 q98 98 240 98q75 0 144 -32t100 -68q45 -51 45 -64q0 -12 -8 -20l-60 -41q-13 -8 -22 4q-58 107 -199 107q-95 0 -156 -64.5t-61 -179.5t62 -181.5t159 -66.5q138 0 195 100q10 16 22 7l58 -37q9 -7 10 -14t-9.5 -24t-37.5 -48q-29 -35 -98.5 -67t-143.5 -32q-138 0 -240 97 q-98 98 -98 264z" />
<glyph unicode="&#xaa;" horiz-adv-x="671" d="M78 1118q0 150 227 150h121v6q0 66 -25 94.5t-96 28.5q-77 0 -141 -43q-9 -3 -14 4l-33 43q-7 11 0 14q59 68 192 68q213 0 213 -213v-217h60q10 0 10 -11v-57q0 -12 -10 -12h-101q-45 0 -45 43v26h-2q-77 -77 -166 -77q-86 0 -139 41q-51 39 -51 112zM180 1128 q0 -37 27 -58t74 -21q86 0 145 65v90h-115q-131 0 -131 -76z" />
<glyph unicode="&#xab;" horiz-adv-x="1067" d="M78 483v45q0 24 28 43l451 314q27 15 27 -11v-90q0 -27 -27 -45l-338 -235l338 -234q27 -21 27 -45v-90q0 -16 -15 -16q-6 0 -12 6l-451 311q-28 22 -28 47zM483 483v45q0 25 27 43l451 314q28 16 28 -11v-90q0 -26 -28 -45l-338 -235l338 -234q28 -22 28 -45v-90 q0 -12 -4 -15.5t-9.5 -2t-14.5 7.5l-451 311q-27 21 -27 47z" />
<glyph unicode="&#xac;" horiz-adv-x="1157" d="M78 690v88q0 27 28 27h945q26 0 26 -27v-465q0 -24 -24 -24h-95q-26 0 -26 24v351h-826q-28 0 -28 26z" />
<glyph unicode="&#xad;" horiz-adv-x="847" d="M78 481v105q0 26 28 26h637q27 0 27 -26v-105q0 -26 -27 -26h-637q-28 0 -28 26z" />
<glyph unicode="&#xae;" horiz-adv-x="1372" d="M78 713q0 248 180 428t428 180t428 -180t180 -428t-180 -428q-181 -181 -428 -181t-428 181q-180 180 -180 428zM178 713q0 -210 148 -361q150 -147 360 -147q211 0 358 147q150 150 150 361t-150 358q-147 150 -358 150q-210 0 -360 -150q-148 -148 -148 -358zM399 379 v72q0 10 11 10h63v522h-63q-11 0 -11 12v72q0 10 11 10h303q107 0 170 -54.5t63 -156.5q0 -154 -141 -194q1 -1 37 -62l76 -147h65q10 0 10 -10v-74q0 -12 -10 -12h-94q-31 0 -51 45l-105 202q-23 45 -53 45h-107v-198h76q13 0 13 -10v-72q0 -12 -13 -12h-239q-11 0 -11 12z M573 748h134q137 0 137 116q0 56 -36.5 87.5t-100.5 31.5h-134v-235z" />
<glyph unicode="&#xb0;" horiz-adv-x="450" d="M78 1010q0 71 43 114q43 44 104.5 44t104.5 -44q43 -43 43 -114t-43 -111q-41 -41 -104.5 -41t-106.5 41q-41 41 -41 111zM156 1014q0 -35 20 -58q20 -20 49 -20t49 20q20 23 20 58t-20 55q-20 23 -49 23t-49 -23q-20 -20 -20 -55z" />
<glyph unicode="&#xb1;" horiz-adv-x="821" d="M78 213v104q0 27 28 27h609q26 0 26 -27v-104q0 -27 -26 -27h-609q-28 0 -28 27zM78 700v105q0 26 28 26h224v226q0 24 24 24h119q25 0 25 -24v-226h217q26 0 26 -26v-105q0 -26 -26 -26h-217v-219q0 -27 -25 -27h-119q-24 0 -24 27v219h-224q-28 0 -28 26z" />
<glyph unicode="&#xb4;" horiz-adv-x="595" d="M80 1237q-18 25 4 39l330 289q18 19 39 -2l63 -78q15 -22 -2 -39l-344 -275q-26 -15 -39 7z" />
<glyph unicode="&#xb6;" horiz-adv-x="1357" d="M78 969q0 240 130.5 370.5t350.5 130.5h696q25 0 25 -24v-105q0 -24 -25 -24h-90v-1452q0 -25 -24 -25h-129q-25 0 -25 25v1452h-147v-1452q0 -25 -25 -25h-127q-26 0 -26 25v618h-82q-237 0 -369.5 123t-132.5 363z" />
<glyph unicode="&#xb8;" horiz-adv-x="483" d="M78 -240l20 25q16 16 35 6q41 -27 90 -27q88 0 88 68q0 53 -100 53q-26 0 -35.5 8t-3.5 27l41 117l86 -2l-31 -86q23 0 68 -10q76 -24 76 -101q0 -76 -50 -117q-46 -42 -126.5 -41t-151.5 48q-21 13 -6 32z" />
<glyph unicode="&#xba;" horiz-adv-x="649" d="M78 1227q0 116 71 186t177 70q105 0 175 -70.5t70 -185.5q0 -116 -70.5 -189t-176.5 -73q-104 0 -175 73.5t-71 188.5zM166 1223q0 -82 45 -127q47 -44 115 -44t112 44q45 45 45 129q0 80 -47 127t-110.5 47t-112.5 -47q-47 -47 -47 -129z" />
<glyph unicode="&#xbb;" horiz-adv-x="1067" d="M78 135v90q0 23 28 45l338 234l-338 235q-28 19 -28 45v90q0 17 8 18.5t20 -7.5l451 -314q27 -18 27 -43v-45q0 -26 -27 -47l-451 -311q-28 -16 -28 10zM483 135v90q0 24 27 45l338 234l-338 235q-27 15 -27 45v90q0 17 13 17q5 0 14 -6l451 -314q28 -19 28 -43v-45 q0 -25 -28 -47l-451 -311q-27 -15 -27 10z" />
<glyph unicode="&#xbd;" horiz-adv-x="1439" d="M82 1298q-4 13 6 21l199 151q10 7 26 7h80q17 0 17 -19v-618h127q20 0 20 -19v-59q0 -21 -20 -21h-392q-18 0 -18 21v59q0 19 18 19h150v512l-150 -113q-10 -8 -20 2zM348 -127l496 1659q9 24 35 24h120q26 0 17 -24l-496 -1659q-6 -25 -33 -25h-120q-25 0 -19 25z M823 20v43q0 67 27.5 118t72.5 82.5t92 54.5t98 49t77 51q42 40 43 98t-37 88q-36 33 -100 33q-156 0 -156 -127q0 -16 -14 -16h-80q-17 0 -17 16q0 98 70.5 164.5t190.5 66.5q122 0 191 -61t69 -150q0 -36 -9 -67.5t-20 -54t-35.5 -46t-40 -36t-49 -30.5t-48 -25t-50.5 -23 q-144 -64 -150 -150h309v72q0 16 17 16h72q16 0 16 -16v-150q0 -20 -21 -20h-497q-21 0 -21 20z" />
<glyph unicode="&#xbf;" horiz-adv-x="1191" d="M78 -143q0 94 33.5 173.5t87.5 129.5q75 66 112 98q14 12 46 39.5t47 41t38 37t38.5 46.5t29.5 51q35 75 35 164q0 25 26 25h142q26 0 26 -25q1 -77 -19.5 -147.5t-48 -118.5t-74.5 -98t-80.5 -77t-84.5 -65q-168 -125 -168 -252q0 -128 90 -203q88 -73 250 -73 q158 0 243 80t87 217q0 24 24 24h129q27 0 27 -24q0 -193 -127 -326q-126 -135 -381 -135q-254 0 -391 119t-137 299zM532 913q0 45 31 76q31 32 77 32t77 -32q32 -31 32 -76t-32 -77q-31 -31 -77 -31t-77 31q-31 32 -31 77z" />
<glyph unicode="&#xc0;" d="M74 25v104q0 25 24 25h138l440 1163h-111q-26 0 -26 24v105q0 24 26 24h279q48 0 74 -19.5t45 -68.5l471 -1228h139q24 0 24 -25v-104q0 -25 -24 -25h-463q-25 0 -25 25v104q0 25 25 25h143l-133 354h-571l-133 -354h143q25 0 25 -25v-104q0 -25 -25 -25h-461 q-24 0 -24 25zM578 1950l65 75q18 20 39 5l330 -291q22 -14 4 -39l-51 -60q-20 -23 -39 -4l-344 275q-19 13 -4 39zM602 649h463l-227 608h-7z" />
<glyph unicode="&#xc1;" d="M74 25v104q0 25 24 25h138l440 1163h-111q-26 0 -26 24v105q0 24 26 24h279q48 0 74 -19.5t45 -68.5l471 -1228h139q24 0 24 -25v-104q0 -25 -24 -25h-463q-25 0 -25 25v104q0 25 25 25h143l-133 354h-571l-133 -354h143q25 0 25 -25v-104q0 -25 -25 -25h-461 q-24 0 -24 25zM602 649h463l-227 608h-7zM735 1700q-18 25 4 39l330 289q18 18 39 -3l63 -77q15 -22 -2 -39l-344 -275q-26 -15 -39 6z" />
<glyph unicode="&#xc2;" d="M74 25v104q0 25 24 25h138l440 1163h-111q-26 0 -26 24v105q0 24 26 24h279q48 0 74 -19.5t45 -68.5l471 -1228h139q24 0 24 -25v-104q0 -25 -24 -25h-463q-25 0 -25 25v104q0 25 25 25h143l-133 354h-571l-133 -354h143q25 0 25 -25v-104q0 -25 -25 -25h-461 q-24 0 -24 25zM489 1700q-12 22 5 39l317 278q19 19 41 -2l317 -276q19 -22 5 -39l-52 -60q-14 -22 -39 -4l-254 215l-249 -215q-22 -16 -39 4zM602 649h463l-227 608h-7z" />
<glyph unicode="&#xc3;" d="M74 25v104q0 25 24 25h138l440 1163h-111q-26 0 -26 24v105q0 24 26 24h279q48 0 74 -19.5t45 -68.5l471 -1228h139q24 0 24 -25v-104q0 -25 -24 -25h-463q-25 0 -25 25v104q0 25 25 25h143l-133 354h-571l-133 -354h143q25 0 25 -25v-104q0 -25 -25 -25h-461 q-24 0 -24 25zM506 1620q0 221 176 221q76 0 158 -67q83 -68 127 -68q47 0 65.5 29t18.5 104q0 25 24 25h49q25 0 25 -25q0 -231 -178 -231q-45 0 -89.5 20t-73.5 44.5t-63 44.5t-61 20q-40 0 -60 -26.5t-20 -90.5q0 -25 -24 -25h-50q-24 0 -24 25zM602 649h463l-227 608h-7 z" />
<glyph unicode="&#xc4;" d="M74 25v104q0 25 24 25h138l440 1163h-111q-26 0 -26 24v105q0 24 26 24h279q48 0 74 -19.5t45 -68.5l471 -1228h139q24 0 24 -25v-104q0 -25 -24 -25h-463q-25 0 -25 25v104q0 25 25 25h143l-133 354h-571l-133 -354h143q25 0 25 -25v-104q0 -25 -25 -25h-461 q-24 0 -24 25zM585 1687.5q0 36.5 25 61.5q25 26 61.5 26t61.5 -26q26 -25 26 -61.5t-26 -61.5q-25 -25 -61.5 -25t-61.5 25t-25 61.5zM602 649h463l-227 608h-7zM909 1687.5q0 36.5 25 61.5q25 26 61.5 26t61.5 -26q26 -25 26 -61.5t-26 -61.5q-25 -25 -61.5 -25t-61.5 25 t-25 61.5z" />
<glyph unicode="&#xc5;" d="M74 25v104q0 25 24 25h138l440 1163h-111q-26 0 -26 24v105q0 24 26 24h279q48 0 74 -19.5t45 -68.5l471 -1228h139q24 0 24 -25v-104q0 -25 -24 -25h-463q-25 0 -25 25v104q0 25 25 25h143l-133 354h-571l-133 -354h143q25 0 25 -25v-104q0 -25 -25 -25h-461 q-24 0 -24 25zM602 649h463l-227 608h-7zM707 1761q0 31 20 64q29 51 100 51q29 0 64 -21q51 -29 51 -102q0 -26 -16 -55q-35 -60 -111 -60q-23 0 -57 21q-51 29 -51 102zM764 1755q0 -38 43 -53q21 -9 43 2q33 14 33 55q0 38 -41 53q-15 5 -21 5q-38 0 -53 -41 q-4 -12 -4 -21z" />
<glyph unicode="&#xc6;" horiz-adv-x="2138" d="M98 25v104q0 25 27 25h137l496 1163h-113q-24 0 -24 24v105q0 24 24 24h1370q25 0 25 -24v-330q0 -26 -25 -26h-110q-27 0 -27 26v201h-616v-508h518q24 0 24 -25v-104q0 -25 -24 -25h-518v-501h616v200q0 25 25 25h112q25 0 25 -25v-329q0 -25 -25 -25h-1089 q-25 0 -25 25v104q0 25 25 25h157v501h-428l-213 -501h142q26 0 26 -25v-104q0 -25 -26 -25h-459q-27 0 -27 25zM717 809h366v508h-145z" />
<glyph unicode="&#xc7;" horiz-adv-x="1540" d="M98 752q0 329 201 530q204 201 487 201q316 0 461 -219l-2 182q-3 24 25 24h114q27 0 27 -24v-447q0 -26 -27 -26h-129q-24 0 -24 26v19q0 92 -129 194q-127 103 -318 103q-189 0 -344 -152q-151 -151 -151 -426t153 -428q154 -151 361 -151q226 0 352 100q99 74 148 158 q16 31 38 12l86 -57q8 -12 9 -21t-6 -29t-33.5 -53.5t-73.5 -83.5q-58 -58 -123 -96.5t-164 -67.5q-101 -29 -223 -32l-12 -39q22 0 67 -10q76 -24 76 -101t-49 -117q-46 -42 -127 -41t-152 48q-20 15 -6 32l21 25q16 16 35 6q40 -27 90 -27q88 0 88 68q0 53 -101 53 q-26 0 -35 8t-3 27l24 70q-275 24 -453 229t-178 533z" />
<glyph unicode="&#xc8;" horiz-adv-x="1337" d="M98 25v104q0 25 27 25h156v1163h-156q-27 0 -27 24v105q0 24 27 24h1087q27 0 27 -24v-330q0 -26 -27 -26h-110q-25 0 -25 26v201h-618v-508h518q27 0 27 -25v-104q0 -25 -27 -25h-518v-501h616v200q0 25 27 25h110q27 0 27 -25v-329q0 -25 -27 -25h-1087q-27 0 -27 25z M391 1950l66 75q21 23 39 5l329 -291q22 -14 4 -39l-51 -60q-20 -23 -39 -4l-344 275q-19 13 -4 39z" />
<glyph unicode="&#xc9;" horiz-adv-x="1337" d="M98 25v104q0 25 27 25h156v1163h-156q-27 0 -27 24v105q0 24 27 24h1087q27 0 27 -24v-330q0 -26 -27 -26h-110q-25 0 -25 26v201h-618v-508h518q27 0 27 -25v-104q0 -25 -27 -25h-518v-501h616v200q0 25 27 25h110q27 0 27 -25v-329q0 -25 -27 -25h-1087q-27 0 -27 25z M469 1700q-19 22 4 39l330 289q18 18 39 -3l63 -77q15 -22 -2 -39l-344 -275q-24 -15 -39 6z" />
<glyph unicode="&#xca;" horiz-adv-x="1337" d="M98 25v104q0 25 27 25h156v1163h-156q-27 0 -27 24v105q0 24 27 24h1087q27 0 27 -24v-330q0 -26 -27 -26h-110q-25 0 -25 26v201h-618v-508h518q27 0 27 -25v-104q0 -25 -27 -25h-518v-501h616v200q0 25 27 25h110q27 0 27 -25v-329q0 -25 -27 -25h-1087q-27 0 -27 25z M285 1700q-16 22 4 39l317 278q20 19 41 -2l318 -276q16 -22 4 -39l-51 -60q-15 -21 -39 -4l-254 215l-250 -215q-21 -18 -39 4z" />
<glyph unicode="&#xcb;" horiz-adv-x="1337" d="M98 25v104q0 25 27 25h156v1163h-156q-27 0 -27 24v105q0 24 27 24h1087q27 0 27 -24v-330q0 -26 -27 -26h-110q-25 0 -25 26v201h-618v-508h518q27 0 27 -25v-104q0 -25 -27 -25h-518v-501h616v200q0 25 27 25h110q27 0 27 -25v-329q0 -25 -27 -25h-1087q-27 0 -27 25z M409 1687.5q0 36.5 25 61.5q25 26 61.5 26t61.5 -26q26 -25 26 -61.5t-26 -61.5q-25 -25 -61.5 -25t-61.5 25t-25 61.5zM733 1687.5q0 36.5 25 61.5q25 26 61.5 26t61.5 -26q26 -25 26 -61.5t-26 -61.5q-25 -25 -61.5 -25t-61.5 25t-25 61.5z" />
<glyph unicode="&#xcc;" horiz-adv-x="774" d="M72 1905l65 75q21 23 39 5l330 -291q22 -14 4 -39l-51 -60q-20 -23 -39 -4l-344 275q-19 13 -4 39zM131 25v104q0 25 27 25h155v1163h-155q-27 0 -27 24v105q0 24 27 24h491q27 0 27 -24v-105q0 -24 -27 -24h-157v-1163h157q27 0 27 -25v-104q0 -25 -27 -25h-491 q-27 0 -27 25z" />
<glyph unicode="&#xcd;" horiz-adv-x="800" d="M98 25v104q0 25 27 25h156v1163h-156q-27 0 -27 24v105q0 24 27 24h491q27 0 27 -24v-105q0 -24 -27 -24h-157v-1163h157q27 0 27 -25v-104q0 -25 -27 -25h-491q-27 0 -27 25zM258 1651q-18 25 4 39l330 288q18 18 39 -2l63 -78q15 -21 -2 -38l-344 -275q-26 -15 -39 6z " />
<glyph unicode="&#xce;" horiz-adv-x="780" d="M51 1700q-13 22 4 39l318 278q19 19 41 -2l317 -276q18 -21 4 -39l-51 -60q-14 -22 -39 -4l-254 215l-250 -215q-22 -16 -39 4zM115 25v104q0 25 26 25h156v1163h-156q-26 0 -26 24v105q0 24 26 24h492q26 0 26 -24v-105q0 -24 -26 -24h-158v-1163h158q26 0 26 -25v-104 q0 -25 -26 -25h-492q-26 0 -26 25z" />
<glyph unicode="&#xcf;" horiz-adv-x="741" d="M98 25v104q0 25 27 25h156v1163h-156q-27 0 -27 24v105q0 24 27 24h491q27 0 27 -24v-105q0 -24 -27 -24h-157v-1163h157q27 0 27 -25v-104q0 -25 -27 -25h-491q-27 0 -27 25zM127 1687.5q0 36.5 25 61.5q25 26 61 26t61 -26q26 -25 26 -61.5t-26 -61.5q-25 -25 -61 -25 t-61 25t-25 61.5zM450 1687.5q0 36.5 25 61.5q25 26 61.5 26t61.5 -26q26 -25 26 -61.5t-26 -61.5q-25 -25 -61.5 -25t-61.5 25t-25 61.5z" />
<glyph unicode="&#xd0;" horiz-adv-x="1517" d="M98 25v104q0 25 27 25h156v510h-140q-28 0 -28 26v86q0 29 28 29h140v512h-156q-27 0 -27 24v105q0 24 27 24h551q342 0 541 -196q200 -194 200 -537q0 -341 -190 -540q-188 -197 -514 -197h-588q-27 0 -27 25zM459 154h205q279 2 424 147t145 426q0 284 -147.5 437 t-428.5 153h-198v-512h313q27 0 27 -29v-86q0 -26 -27 -26h-313v-510z" />
<glyph unicode="&#xd1;" horiz-adv-x="1679" d="M98 25v104q0 25 27 25h156v1163h-156q-27 0 -27 24v105q0 24 27 24h287q58 0 104 -69l584 -914l117 -198h4v1028h-158q-25 0 -25 24v105q0 24 25 24h493q25 0 25 -24v-105q0 -24 -25 -24h-157v-1292q0 -25 -27 -25h-110q-37 0 -60.5 15t-44.5 48l-592 926l-102 172h-4 v-1007h157q27 0 27 -25v-104q0 -25 -27 -25h-491q-27 0 -27 25zM535 1620q0 221 176 221q75 0 157 -67q83 -68 127 -68q47 0 65.5 29t18.5 104q0 25 25 25h49q25 0 25 -25q0 -231 -179 -231q-45 0 -89 20t-73 44.5t-63 44.5t-61 20q-40 0 -60 -26.5t-20 -90.5q0 -25 -25 -25 h-49q-24 0 -24 25z" />
<glyph unicode="&#xd2;" horiz-adv-x="1624" d="M98 743q0 338 211 537q212 203 504 203q293 0 502 -203q209 -200 209 -539q0 -334 -203 -546q-200 -209 -508 -209q-305 0 -510 211t-205 546zM291 737q0 -275 155 -430t367 -155q210 0 365 155t155 430t-159 428q-156 156 -361 156q-203 0 -362 -156 q-160 -154 -160 -428zM535 1950l65 75q21 23 39 5l330 -291q22 -14 4 -39l-51 -60q-20 -23 -39 -4l-344 275q-19 13 -4 39z" />
<glyph unicode="&#xd3;" horiz-adv-x="1624" d="M98 743q0 338 211 537q212 203 504 203q293 0 502 -203q209 -200 209 -539q0 -334 -203 -546q-200 -209 -508 -209q-305 0 -510 211t-205 546zM291 737q0 -275 155 -430t367 -155q210 0 365 155t155 430t-159 428q-156 156 -361 156q-203 0 -362 -156 q-160 -154 -160 -428zM588 1700q-19 22 4 39l330 289q18 18 39 -3l63 -77q15 -22 -2 -39l-344 -275q-24 -15 -39 6z" />
<glyph unicode="&#xd4;" horiz-adv-x="1624" d="M98 743q0 338 211 537q212 203 504 203q293 0 502 -203q209 -200 209 -539q0 -334 -203 -546q-200 -209 -508 -209q-305 0 -510 211t-205 546zM291 737q0 -275 155 -430t367 -155q210 0 365 155t155 430t-159 428q-156 156 -361 156q-203 0 -362 -156 q-160 -154 -160 -428zM469 1700q-16 22 4 39l318 278q19 19 40 -2l318 -276q16 -22 4 -39l-51 -60q-15 -21 -39 -4l-254 215l-250 -215q-21 -18 -39 4z" />
<glyph unicode="&#xd5;" horiz-adv-x="1624" d="M98 743q0 338 211 537q212 203 504 203q293 0 502 -203q209 -200 209 -539q0 -334 -203 -546q-200 -209 -508 -209q-305 0 -510 211t-205 546zM291 737q0 -275 155 -430t367 -155q210 0 365 155t155 430t-159 428q-156 156 -361 156q-203 0 -362 -156 q-160 -154 -160 -428zM504 1620q0 221 176 221q76 0 158 -67q83 -68 127 -68q47 0 65.5 29t18.5 104q0 25 24 25h49q25 0 25 -25q0 -231 -178 -231q-45 0 -89.5 20t-73.5 44.5t-63 44.5t-61 20q-40 0 -60 -26.5t-20 -90.5q0 -25 -24 -25h-50q-24 0 -24 25z" />
<glyph unicode="&#xd6;" horiz-adv-x="1624" d="M98 743q0 338 211 537q212 203 504 203q293 0 502 -203q209 -200 209 -539q0 -334 -203 -546q-200 -209 -508 -209q-305 0 -510 211t-205 546zM291 737q0 -275 155 -430t367 -155q210 0 365 155t155 430t-159 428q-156 156 -361 156q-203 0 -362 -156 q-160 -154 -160 -428zM563 1687.5q0 36.5 25 61.5q25 26 61.5 26t61.5 -26q26 -25 26 -61.5t-26 -61.5q-25 -25 -61.5 -25t-61.5 25t-25 61.5zM886 1687.5q0 36.5 25 61.5q25 26 61.5 26t61.5 -26q26 -25 26 -61.5t-26 -61.5q-25 -25 -61.5 -25t-61.5 25t-25 61.5z" />
<glyph unicode="&#xd7;" horiz-adv-x="720" d="M78 778q0 8 10 19l82 82q8 11 18 11t17 -11l160 -164l157 157q15 22 37 0l74 -73q19 -19 0 -39l-156 -156l154 -151q13 -18 0 -37l-82 -82q-15 -15 -35 0l-154 153l-157 -159q-20 -14 -39 0l-74 73q-15 20 0 41l158 158l-160 160q-10 10 -10 18z" />
<glyph unicode="&#xd8;" horiz-adv-x="1624" d="M98 743q0 338 211 537q212 203 504 203q59 0 139 -17l35 113q6 25 33 25h121q24 0 18 -25l-47 -160q190 -84 301 -260.5t111 -415.5q0 -336 -203 -548q-200 -209 -508 -209q-58 0 -127 16l-24 -82q-6 -24 -31 -24h-123q-25 0 -19 24l37 123q-195 82 -313 268 q-115 186 -115 432zM291 737q0 -183 77.5 -316t209.5 -202l327 1084q-56 16 -110 16q-197 -6 -351 -160q-153 -153 -153 -422zM735 166q49 -12 103 -12q200 9 348 163q147 153 147 420q0 177 -74 306t-200 198z" />
<glyph unicode="&#xd9;" horiz-adv-x="1667" d="M98 1341v105q0 24 27 24h491q27 0 27 -24v-105q0 -24 -27 -24h-157v-772q0 -393 377 -393q188 0 280 98.5t92 281.5v785h-157q-25 0 -25 24v105q0 24 25 24h493q25 0 25 -24v-105q0 -24 -25 -24h-158v-766q0 -275 -143 -420t-409 -145q-265 0 -409 145t-144 420v766h-156 q-27 0 -27 24zM618 1950l66 75q18 20 39 5l330 -291q22 -14 4 -39l-51 -60q-20 -23 -39 -4l-344 275q-19 14 -5 39z" />
<glyph unicode="&#xda;" horiz-adv-x="1667" d="M98 1341v105q0 24 27 24h491q27 0 27 -24v-105q0 -24 -27 -24h-157v-772q0 -393 377 -393q188 0 280 98.5t92 281.5v785h-157q-25 0 -25 24v105q0 24 25 24h493q25 0 25 -24v-105q0 -24 -25 -24h-158v-766q0 -275 -143 -420t-409 -145q-265 0 -409 145t-144 420v766h-156 q-27 0 -27 24zM682 1700q-19 22 4 39l330 289q18 18 39 -3l63 -77q15 -22 -2 -39l-344 -275q-24 -15 -39 6z" />
<glyph unicode="&#xdb;" horiz-adv-x="1667" d="M98 1341v105q0 24 27 24h491q27 0 27 -24v-105q0 -24 -27 -24h-157v-772q0 -393 377 -393q188 0 280 98.5t92 281.5v785h-157q-25 0 -25 24v105q0 24 25 24h493q25 0 25 -24v-105q0 -24 -25 -24h-158v-766q0 -275 -143 -420t-409 -145q-265 0 -409 145t-144 420v766h-156 q-27 0 -27 24zM494 1700q-16 22 4 39l317 278q19 19 41 -2l318 -276q16 -22 4 -39l-52 -60q-15 -21 -39 -4l-253 215l-250 -215q-21 -18 -39 4z" />
<glyph unicode="&#xdc;" horiz-adv-x="1667" d="M98 1341v105q0 24 27 24h491q27 0 27 -24v-105q0 -24 -27 -24h-157v-772q0 -393 377 -393q188 0 280 98.5t92 281.5v785h-157q-25 0 -25 24v105q0 24 25 24h493q25 0 25 -24v-105q0 -24 -25 -24h-158v-766q0 -275 -143 -420t-409 -145q-265 0 -409 145t-144 420v766h-156 q-27 0 -27 24zM583 1687.5q0 36.5 25 61.5q25 26 61.5 26t61.5 -26q26 -25 26 -61.5t-26 -61.5q-25 -25 -61.5 -25t-61.5 25t-25 61.5zM907 1687.5q0 36.5 25 61.5q25 26 61.5 26t61.5 -26q26 -25 26 -61.5t-26 -61.5q-25 -25 -61.5 -25t-61.5 25t-25 61.5z" />
<glyph unicode="&#xdd;" horiz-adv-x="1554" d="M98 1341v105q0 24 27 24h461q24 0 24 -24v-105q0 -24 -24 -24h-135l321 -569h12l320 569h-135q-25 0 -25 24v105q0 24 25 24h463q24 0 24 -24v-105q0 -24 -24 -24h-142q-75 -108 -262 -434q-160 -287 -162 -289v-440h158q25 0 25 -25v-104q0 -25 -25 -25h-494 q-24 0 -24 25v104q0 25 24 25h158v438l-82 141q-275 487 -342 584h-139q-27 0 -27 24zM565 1700q-18 25 4 39l330 289q18 18 39 -3l63 -77q15 -22 -2 -39l-344 -275q-26 -15 -39 6z" />
<glyph unicode="&#xde;" horiz-adv-x="1282" d="M78 25v92q0 24 26 24h144v1188h-139q-27 0 -27 25v92q0 24 27 24h284q27 0 27 -24l-2 -250h293q225 0 358 -116t133 -324q0 -210 -131.5 -320t-382.5 -110h-274v-185h192q27 0 27 -24v-92q0 -25 -27 -25h-502q-26 0 -26 25zM416 471h289q319 0 319 285q0 142 -86.5 214 t-232.5 72h-289v-571z" />
<glyph unicode="&#xdf;" horiz-adv-x="1427" d="M78 25v92q0 24 26 24h117v846q0 229 129 361q132 135 314 135q178 0 272 -77.5t94 -201.5q0 -117 -92 -188q-13 -9 -37 -29t-37 -29q-92 -65 -92 -163q0 -39 21.5 -70t64.5 -54.5t83 -39t104 -37.5t100 -37q92 -34 148.5 -105t56.5 -171q0 -131 -121 -220 q-121 -86 -289 -86q-316 0 -420 291q-2 2 -2 4q-13 23 12 35l72 33q26 9 35 -12q47 -106 117 -158q68 -51 172 -51q101 0 172 47q71 50 71 121q0 128 -200 186q-42 13 -70.5 22t-70.5 25.5t-70 32.5t-60 40t-51 50t-31 61t-12 74q0 85 36.5 146t90.5 94q127 74 127 160 q0 70 -48 111.5t-148 41.5q-104 0 -187 -92q-82 -88 -82 -250v-846h82q25 0 25 -24v-92q0 -25 -25 -25h-371q-26 0 -26 25z" />
<glyph unicode="&#xe0;" horiz-adv-x="1187" d="M78 268q0 164 143 245t406 81h172v24q0 256 -267 256q-124 0 -180 -24q-53 -20 -80 -37q-7 -5 -18.5 -12t-15.5 -10q-31 -25 -45 -5l-58 72q-16 16 4 33q32 43 144 88q107 43 256 43q430 0 430 -410v-475h114q25 0 25 -24v-88q0 -25 -25 -25h-178q-88 0 -88 86v104h-4 q-150 -206 -399 -206q-149 0 -242.5 77.5t-93.5 206.5zM254 293q0 -72 59 -118t152 -46q199 0 334 176v166h-162q-129 0 -203.5 -13t-126.5 -52q-53 -41 -53 -113zM317 1487l66 76q20 23 39 4l330 -291q22 -14 4 -39l-51 -59q-20 -23 -39 -4l-344 274q-19 14 -5 39z" />
<glyph unicode="&#xe1;" horiz-adv-x="1187" d="M78 268q0 164 143 245t406 81h172v24q0 256 -267 256q-124 0 -180 -24q-53 -20 -80 -37q-7 -5 -18.5 -12t-15.5 -10q-31 -25 -45 -5l-58 72q-16 16 4 33q32 43 144 88q107 43 256 43q430 0 430 -410v-475h114q25 0 25 -24v-88q0 -25 -25 -25h-178q-88 0 -88 86v104h-4 q-150 -206 -399 -206q-149 0 -242.5 77.5t-93.5 206.5zM254 293q0 -72 59 -118t152 -46q199 0 334 176v166h-162q-129 0 -203.5 -13t-126.5 -52q-53 -41 -53 -113zM397 1237q-18 25 4 39l330 289q19 19 39 -2l64 -78q15 -21 -3 -39l-344 -275q-25 -14 -38 7z" />
<glyph unicode="&#xe2;" horiz-adv-x="1187" d="M78 268q0 164 143 245t406 81h172v24q0 256 -267 256q-124 0 -180 -24q-53 -20 -80 -37q-7 -5 -18.5 -12t-15.5 -10q-31 -25 -45 -5l-58 72q-16 16 4 33q32 43 144 88q107 43 256 43q430 0 430 -410v-475h114q25 0 25 -24v-88q0 -25 -25 -25h-178q-88 0 -88 86v104h-4 q-150 -206 -399 -206q-149 0 -242.5 77.5t-93.5 206.5zM233 1237q-12 22 5 39l317 278q8 8 19.5 8t21.5 -10l317 -276q19 -22 5 -39l-52 -59q-14 -22 -39 -4l-254 215l-249 -215q-19 -19 -39 4zM254 293q0 -72 59 -118t152 -46q199 0 334 176v166h-162q-129 0 -203.5 -13 t-126.5 -52q-53 -41 -53 -113z" />
<glyph unicode="&#xe3;" horiz-adv-x="1187" d="M78 268q0 164 143 245t406 81h172v24q0 256 -267 256q-124 0 -180 -24q-53 -20 -80 -37q-7 -5 -18.5 -12t-15.5 -10q-31 -25 -45 -5l-58 72q-16 16 4 33q32 43 144 88q107 43 256 43q430 0 430 -410v-475h114q25 0 25 -24v-88q0 -25 -25 -25h-178q-88 0 -88 86v104h-4 q-150 -206 -399 -206q-149 0 -242.5 77.5t-93.5 206.5zM252 1157q0 221 176 221q76 0 158 -67q83 -68 127 -68q47 0 65.5 29t18.5 104q0 25 24 25h49q25 0 25 -25q0 -231 -178 -231q-45 0 -89.5 20t-73.5 44.5t-63 44.5t-61 20q-40 0 -60 -26.5t-20 -90.5q0 -24 -24 -24h-50 q-24 0 -24 24zM254 293q0 -72 59 -118t152 -46q199 0 334 176v166h-162q-129 0 -203.5 -13t-126.5 -52q-53 -41 -53 -113z" />
<glyph unicode="&#xe4;" horiz-adv-x="1187" d="M78 268q0 164 143 245t406 81h172v24q0 256 -267 256q-124 0 -180 -24q-53 -20 -80 -37q-7 -5 -18.5 -12t-15.5 -10q-31 -25 -45 -5l-58 72q-16 16 4 33q32 43 144 88q107 43 256 43q430 0 430 -410v-475h114q25 0 25 -24v-88q0 -25 -25 -25h-178q-88 0 -88 86v104h-4 q-150 -206 -399 -206q-149 0 -242.5 77.5t-93.5 206.5zM254 293q0 -72 59 -118t152 -46q199 0 334 176v166h-162q-129 0 -203.5 -13t-126.5 -52q-53 -41 -53 -113zM346 1224.5q0 36.5 25 61.5q25 26 61.5 26t61.5 -26q26 -25 26 -61.5t-26 -61.5q-25 -25 -61.5 -25t-61.5 25 t-25 61.5zM669 1224.5q0 36.5 25 61.5q25 26 61.5 26t61.5 -26q26 -25 26 -61.5t-26 -61.5q-25 -25 -61.5 -25t-61.5 25t-25 61.5z" />
<glyph unicode="&#xe5;" horiz-adv-x="1187" d="M78 268q0 164 143 245t406 81h172v24q0 256 -267 256q-124 0 -180 -24q-53 -20 -80 -37q-7 -5 -18.5 -12t-15.5 -10q-31 -25 -45 -5l-58 72q-16 16 4 33q32 43 144 88q107 43 256 43q430 0 430 -410v-475h114q25 0 25 -24v-88q0 -25 -25 -25h-178q-88 0 -88 86v104h-4 q-150 -206 -399 -206q-149 0 -242.5 77.5t-93.5 206.5zM254 293q0 -72 59 -118t152 -46q199 0 334 176v166h-162q-129 0 -203.5 -13t-126.5 -52q-53 -41 -53 -113zM475 1298q0 30 21 64q29 51 100 51q30 0 63 -20q52 -30 52 -103q0 -24 -17 -55q-35 -59 -110 -59 q-25 0 -58 20q-51 29 -51 102zM532 1292q0 -38 43 -53q21 -9 43 2q33 14 33 55q0 39 -41 54q-12 4 -20 4q-38 0 -53 -41q-5 -15 -5 -21z" />
<glyph unicode="&#xe6;" horiz-adv-x="1822" d="M78 268q0 164 143 245t406 81h172v27q0 133 -67.5 193t-199.5 60q-124 0 -180 -24q-53 -20 -80 -37q-7 -5 -18.5 -12t-15.5 -10q-31 -25 -45 -5l-58 72q-16 16 4 33q32 43 144 88q107 43 256 43q291 0 374 -195q61 91 159.5 142t209.5 51q217 0 337 -132t120 -362v-16 q0 -29 -29 -29h-737q9 -172 106 -262q103 -92 226 -92q124 0 213 53q91 54 120 105q15 21 37 6l56 -55q23 -18 3.5 -46t-120.5 -114q-123 -92 -336 -92q-121 0 -235 65t-175 178q-65 -96 -176 -170q-113 -73 -270 -73q-156 0 -250 77t-94 207zM254 291q0 -68 57.5 -115 t132.5 -47q78 0 127 14q89 30 152 90q30 27 76 91l14 18q-14 55 -14 141h-162q-383 0 -383 -192zM977 594h592q-6 132 -80.5 211.5t-196.5 79.5q-125 0 -211 -76.5t-104 -214.5z" />
<glyph unicode="&#xe7;" horiz-adv-x="1103" d="M78 512q0 234 143 371q145 139 354 139q207 0 316 -152h2l-2 113q0 27 27 27h77q25 0 25 -27v-348q0 -25 -25 -25h-94q-24 0 -24 25v35q-3 75 -84 141q-83 68 -209 68t-230 -101t-104 -274t102 -275q100 -100 230 -100q126 0 215 53q93 59 121 107q14 23 34 6l60 -57 q21 -18 6 -37q-28 -57 -129 -127q-105 -72 -250 -84l-14 -41q22 0 67 -10q76 -24 76 -101t-49 -117q-46 -42 -128.5 -41t-150.5 48q-20 15 -6 32l21 25q15 15 34 6q41 -27 91 -27q88 0 88 68q0 53 -101 53q-26 0 -35.5 8t-3.5 27l23 66q-202 9 -338 151q-135 141 -135 375z " />
<glyph unicode="&#xe8;" horiz-adv-x="1101" d="M78 506q0 240 143 377q145 139 350 139q208 0 328 -135q119 -131 119 -361v-16q0 -27 -29 -27h-737q9 -172 106 -262q103 -92 226 -92q124 0 213 53q92 55 121 105q15 21 36 6l56 -55q17 -18 11 -33t-46 -58q-48 -58 -155.5 -111t-237.5 -50q-217 0 -361 141 q-143 140 -143 379zM256 608h592q-6 128 -80.5 203.5t-196.5 75.5q-127 0 -212.5 -72t-102.5 -207zM324 1487l65 76q17 20 39 4l330 -291q22 -14 4 -39l-51 -59q-20 -23 -39 -4l-344 274q-19 13 -4 39z" />
<glyph unicode="&#xe9;" horiz-adv-x="1101" d="M78 506q0 240 143 377q145 139 350 139q208 0 328 -135q119 -131 119 -361v-16q0 -27 -29 -27h-737q9 -172 106 -262q103 -92 226 -92q124 0 213 53q92 55 121 105q15 21 36 6l56 -55q17 -18 11 -33t-46 -58q-48 -58 -155.5 -111t-237.5 -50q-217 0 -361 141 q-143 140 -143 379zM256 608h592q-6 128 -80.5 203.5t-196.5 75.5q-127 0 -212.5 -72t-102.5 -207zM418 1237q-19 22 4 39l330 289q18 19 39 -2l63 -78q15 -22 -2 -39l-344 -275q-24 -15 -39 7z" />
<glyph unicode="&#xea;" horiz-adv-x="1101" d="M78 506q0 240 143 377q145 139 350 139q208 0 328 -135q119 -131 119 -361v-16q0 -27 -29 -27h-737q9 -172 106 -262q103 -92 226 -92q124 0 213 53q92 55 121 105q15 21 36 6l56 -55q17 -18 11 -33t-46 -58q-48 -58 -155.5 -111t-237.5 -50q-217 0 -361 141 q-143 140 -143 379zM223 1237q-16 22 4 39l318 278q8 8 19.5 8t21.5 -10l317 -276q16 -22 4 -39l-51 -59q-15 -21 -39 -4l-254 215l-250 -215q-21 -18 -39 4zM256 608h592q-6 128 -80.5 203.5t-196.5 75.5q-127 0 -212.5 -72t-102.5 -207z" />
<glyph unicode="&#xeb;" horiz-adv-x="1101" d="M78 506q0 240 143 377q145 139 350 139q208 0 328 -135q119 -131 119 -361v-16q0 -27 -29 -27h-737q9 -172 106 -262q103 -92 226 -92q124 0 213 53q92 55 121 105q15 21 36 6l56 -55q17 -18 11 -33t-46 -58q-48 -58 -155.5 -111t-237.5 -50q-217 0 -361 141 q-143 140 -143 379zM256 608h592q-6 128 -80.5 203.5t-196.5 75.5q-127 0 -212.5 -72t-102.5 -207zM309 1224.5q0 36.5 25 61.5q25 26 61.5 26t61.5 -26q26 -25 26 -61.5t-26 -61.5q-25 -25 -61.5 -25t-61.5 25t-25 61.5zM632 1224.5q0 36.5 25 61.5q25 26 61.5 26t61.5 -26 q26 -25 26 -61.5t-26 -61.5q-25 -25 -61.5 -25t-61.5 25t-25 61.5z" />
<glyph unicode="&#xec;" horiz-adv-x="600" d="M-78 1477l66 75q20 23 39 4l329 -290q22 -14 4 -39l-51 -60q-20 -23 -39 -4l-344 275q-19 13 -4 39zM80 25v88q0 24 26 24h113v733h-113q-26 0 -26 25v88q0 25 26 25h259q24 0 24 -25v-846h109q26 0 26 -24v-88q0 -25 -26 -25h-392q-26 0 -26 25z" />
<glyph unicode="&#xed;" horiz-adv-x="600" d="M78 25v88q0 24 26 24h113v733h-113q-26 0 -26 25v88q0 25 26 25h258q25 0 25 -25v-846h109q26 0 26 -24v-88q0 -25 -26 -25h-392q-26 0 -26 25zM199 1237q-18 25 4 39l329 289q18 19 39 -2l64 -78q15 -22 -2 -39l-344 -275q-26 -15 -39 7z" />
<glyph unicode="&#xee;" horiz-adv-x="600" d="M-47 1237q-13 22 4 39l317 278q8 8 19.5 8t21.5 -10l318 -276q18 -21 4 -39l-51 -59q-14 -22 -39 -4l-254 215l-250 -215q-19 -19 -39 4zM80 25v88q0 24 26 24h113v733h-113q-26 0 -26 25v88q0 25 26 25h259q24 0 24 -25v-846h109q26 0 26 -24v-88q0 -25 -26 -25h-392 q-26 0 -26 25z" />
<glyph unicode="&#xef;" horiz-adv-x="600" d="M65 1224.5q0 36.5 25 61.5q25 26 61.5 26t61.5 -26q26 -25 26 -61.5t-26 -61.5q-25 -25 -61.5 -25t-61.5 25t-25 61.5zM78 25v88q0 24 26 24h113v733h-113q-26 0 -26 25v88q0 25 26 25h258q25 0 25 -25v-846h109q26 0 26 -24v-88q0 -25 -26 -25h-392q-26 0 -26 25z M389 1224.5q0 36.5 25 61.5q25 26 61.5 26t61.5 -26q26 -25 26 -61.5t-26 -61.5q-25 -25 -61.5 -25t-61.5 25t-25 61.5z" />
<glyph unicode="&#xf0;" horiz-adv-x="1251" d="M80 475q0 217 131 344t364 127q237 0 402 -104q-15 278 -164 391l-98 -100q-19 -19 -37 0l-41 43q-20 18 0 38l82 82q-70 25 -133 25q-137 0 -209 -72q-70 -70 -70 -153q0 -25 -24 -25h-125q-25 0 -25 25q0 174 123.5 280.5t327.5 106.5q145 0 262 -60l98 101q20 14 39 0 l41 -43q18 -18 0 -39l-82 -82q232 -188 232 -637q0 -336 -148 -537q-144 -200 -401 -200q-259 0 -402 137t-143 352zM264 481q0 -147 92 -239q96 -90 262 -90q173 0 267 141q97 145 100 401q-165 113 -348 113t-279 -90q-94 -88 -94 -236z" />
<glyph unicode="&#xf1;" horiz-adv-x="1271" d="M78 25v88q0 24 26 24h113v733h-113q-26 0 -26 25v88q0 25 26 25h240q27 0 27 -25l-4 -139h6q108 178 329 178q163 0 256 -95.5t95 -260.5v-529h114q27 0 27 -24v-88q0 -25 -27 -25h-194q-88 0 -88 86v539q0 119 -58 184t-168 65q-157 0 -245 -129q-18 -24 -27 -45v-563 h109q26 0 26 -24v-88q0 -25 -26 -25h-392q-26 0 -26 25zM309 1157q0 221 176 221q76 0 158 -67q83 -68 127 -68q47 0 65.5 29t18.5 104q0 25 25 25h49q24 0 24 -25q0 -231 -178 -231q-45 0 -89.5 20t-73.5 44.5t-63 44.5t-61 20q-40 0 -59.5 -26.5t-19.5 -90.5 q0 -24 -25 -24h-49q-25 0 -25 24z" />
<glyph unicode="&#xf2;" horiz-adv-x="1177" d="M78 506q0 238 145 377t365 139t364 -141q146 -140 146 -375q0 -233 -144 -377q-143 -143 -366 -143t-367 141q-143 143 -143 379zM250 506q0 -169 98 -273t240 -104q143 0 241 104q99 105 99 273q0 169 -101 270q-100 103 -237 103t-240 -103q-100 -100 -100 -270z M283 1487l65 76q17 20 39 4l330 -291q22 -14 4 -39l-51 -59q-20 -23 -39 -4l-344 274q-19 13 -4 39z" />
<glyph unicode="&#xf3;" horiz-adv-x="1177" d="M78 506q0 238 145 377t365 139t364 -141q146 -140 146 -375q0 -233 -144 -377q-143 -143 -366 -143t-367 141q-143 143 -143 379zM250 506q0 -169 98 -273t240 -104q143 0 241 104q99 105 99 273q0 169 -101 270q-100 103 -237 103t-240 -103q-100 -100 -100 -270z M446 1237q-19 22 5 39l329 289q18 19 39 -2l64 -78q15 -22 -2 -39l-344 -275q-24 -15 -39 7z" />
<glyph unicode="&#xf4;" horiz-adv-x="1177" d="M78 506q0 238 145 377t365 139t364 -141q146 -140 146 -375q0 -233 -144 -377q-143 -143 -366 -143t-367 141q-143 143 -143 379zM250 506q0 -169 98 -273t240 -104q143 0 241 104q99 105 99 273q0 169 -101 270q-100 103 -237 103t-240 -103q-100 -100 -100 -270z M258 1237q-16 22 4 39l318 278q8 8 19.5 8t21.5 -10l317 -276q16 -22 4 -39l-51 -59q-15 -21 -39 -4l-254 215l-250 -215q-21 -18 -39 4z" />
<glyph unicode="&#xf5;" horiz-adv-x="1177" d="M78 506q0 238 145 377t365 139t364 -141q146 -140 146 -375q0 -233 -144 -377q-143 -143 -366 -143t-367 141q-143 143 -143 379zM250 506q0 -169 98 -273t240 -104q143 0 241 104q99 105 99 273q0 169 -101 270q-100 103 -237 103t-240 -103q-100 -100 -100 -270z M283 1157q0 221 176 221q75 0 157 -67q83 -68 127 -68q47 0 65.5 29t18.5 104q0 25 25 25h49q25 0 25 -25q0 -231 -178 -231q-45 0 -89.5 20t-73.5 44.5t-63 44.5t-61 20q-40 0 -60 -26.5t-20 -90.5q0 -24 -25 -24h-49q-24 0 -24 24z" />
<glyph unicode="&#xf6;" horiz-adv-x="1177" d="M78 506q0 238 145 377t365 139t364 -141q146 -140 146 -375q0 -233 -144 -377q-143 -143 -366 -143t-367 141q-143 143 -143 379zM250 506q0 -169 98 -273t240 -104q143 0 241 104q99 105 99 273q0 169 -101 270q-100 103 -237 103t-240 -103q-100 -100 -100 -270z M344 1224.5q0 36.5 25 61.5q25 26 61.5 26t61.5 -26q26 -25 26 -61.5t-26 -61.5q-25 -25 -61.5 -25t-61.5 25t-25 61.5zM667 1224.5q0 36.5 25 61.5q25 26 61.5 26t61.5 -26q26 -25 26 -61.5t-26 -61.5q-25 -25 -61.5 -25t-61.5 25t-25 61.5z" />
<glyph unicode="&#xf7;" horiz-adv-x="847" d="M78 479v105q0 26 28 26h637q27 0 27 -26v-105q0 -26 -27 -26h-637q-28 0 -28 26zM340 283q0 36 25 61t61 25q35 0 59.5 -24.5t24.5 -61.5q0 -35 -24.5 -59.5t-59.5 -24.5t-60.5 24.5t-25.5 59.5zM340 792q0 35 25 60q26 25 60.5 25t59.5 -25t25 -60t-25 -61 q-25 -25 -59.5 -25t-60.5 25q-25 26 -25 61z" />
<glyph unicode="&#xf8;" horiz-adv-x="1177" d="M78 508q0 236 145 375t367 139q96 0 186 -35l15 31q9 26 34 26h86q28 0 19 -26l-43 -82q211 -141 211 -428q0 -235 -144 -379q-143 -143 -366 -143q-89 0 -168 26l-25 -47q-12 -24 -33 -24h-86q-27 0 -18 24l49 96q-107 67 -168 183.5t-61 263.5zM250 494 q0 -179 131 -283l326 641q-59 27 -117 27q-137 0 -240 -103q-100 -100 -100 -282zM489 150q43 -21 103 -21q143 0 237 104q99 105 99 275q0 168 -117 276z" />
<glyph unicode="&#xf9;" horiz-adv-x="1245" d="M51 895v88q0 25 25 25h196q88 0 88 -86v-539q0 -119 58.5 -184.5t167.5 -65.5q150 0 235 111q37 46 37 63v563h-110q-25 0 -25 25v88q0 25 25 25h253q25 0 25 -25v-846h115q26 0 26 -24v-88q0 -25 -26 -25h-178q-89 0 -89 86v76h-6q-83 -176 -319 -176q-163 0 -258.5 97 t-97.5 259v528h-117q-25 0 -25 25zM291 1487l65 76q17 20 39 4l330 -291q22 -14 4 -39l-51 -59q-20 -23 -39 -4l-344 274q-19 13 -4 39z" />
<glyph unicode="&#xfa;" horiz-adv-x="1245" d="M51 895v88q0 25 25 25h196q88 0 88 -86v-539q0 -119 58.5 -184.5t167.5 -65.5q150 0 235 111q37 46 37 63v563h-110q-25 0 -25 25v88q0 25 25 25h253q25 0 25 -25v-846h115q26 0 26 -24v-88q0 -25 -26 -25h-178q-89 0 -89 86v76h-6q-83 -176 -319 -176q-163 0 -258.5 97 t-97.5 259v528h-117q-25 0 -25 25zM377 1237q-19 22 4 39l330 289q19 19 39 -2l63 -78q15 -22 -2 -39l-344 -275q-24 -15 -39 7z" />
<glyph unicode="&#xfb;" horiz-adv-x="1245" d="M51 895v88q0 25 25 25h196q88 0 88 -86v-539q0 -119 58.5 -184.5t167.5 -65.5q150 0 235 111q37 46 37 63v563h-110q-25 0 -25 25v88q0 25 25 25h253q25 0 25 -25v-846h115q26 0 26 -24v-88q0 -25 -26 -25h-178q-89 0 -89 86v76h-6q-83 -176 -319 -176q-163 0 -258.5 97 t-97.5 259v528h-117q-25 0 -25 25zM242 1237q-16 22 4 39l317 278q8 8 19.5 8t21.5 -10l318 -276q16 -22 4 -39l-52 -59q-15 -21 -38 -4l-254 215l-250 -215q-21 -18 -39 4z" />
<glyph unicode="&#xfc;" horiz-adv-x="1245" d="M51 895v88q0 25 25 25h196q88 0 88 -86v-539q0 -119 58.5 -184.5t167.5 -65.5q150 0 235 111q37 46 37 63v563h-110q-25 0 -25 25v88q0 25 25 25h253q25 0 25 -25v-846h115q26 0 26 -24v-88q0 -25 -26 -25h-178q-89 0 -89 86v76h-6q-83 -176 -319 -176q-163 0 -258.5 97 t-97.5 259v528h-117q-25 0 -25 25zM337 1224.5q0 36.5 25 61.5q25 26 61.5 26t61.5 -26q26 -25 26 -61.5t-26 -61.5q-25 -25 -61.5 -25t-61.5 25t-25 61.5zM661 1224.5q0 36.5 25 61.5q25 26 61.5 26t61.5 -26q26 -25 26 -61.5t-26 -61.5q-25 -25 -61.5 -25t-61.5 25 t-25 61.5z" />
<glyph unicode="&#xfd;" horiz-adv-x="1208" d="M31 895v88q0 25 24 25h371q27 0 27 -25v-88q0 -25 -27 -25h-84l264 -694h4l246 694h-92q-25 0 -25 25v88q0 25 25 25h381q24 0 24 -25v-88q0 -25 -24 -25h-115l-364 -1001q-70 -190 -143.5 -269t-196.5 -79q-126 0 -215 80q-22 22 -7 37l52 65q18 15 37 2 q48 -40 116.5 -39t110.5 47q46 46 86 158l55 152h-26q-34 0 -54 51l-313 796h-113q-24 0 -24 25zM440 1237q-18 25 4 39l330 289q18 19 39 -2l64 -78q15 -21 -3 -39l-344 -275q-25 -14 -38 7z" />
<glyph unicode="&#xfe;" horiz-adv-x="1255" d="M78 -350q0 26 26 26h115v1655h-110q-27 0 -27 25v88q0 24 27 24h253q27 0 27 -24v-610q95 188 313 188q221 0 347 -141q127 -139 127 -373t-125 -377q-127 -145 -334 -145q-122 0 -208.5 55.5t-125.5 144.5h-4q4 -62 4 -73v-437h133q27 0 27 -26v-86q0 -27 -27 -27h-412 q-26 0 -26 27v86zM379 506q0 -170 88 -273.5t225 -103.5q138 0 227 104.5t89 270.5q0 168 -90 272q-89 103 -226 103t-225 -102t-88 -271z" />
<glyph unicode="&#xff;" horiz-adv-x="1208" d="M31 895v88q0 25 24 25h371q27 0 27 -25v-88q0 -25 -27 -25h-84l264 -694h4l246 694h-92q-25 0 -25 25v88q0 25 25 25h381q24 0 24 -25v-88q0 -25 -24 -25h-115l-364 -1001q-70 -190 -143.5 -269t-196.5 -79q-126 0 -215 80q-22 22 -7 37l52 65q18 15 37 2 q48 -40 116.5 -39t110.5 47q46 46 86 158l55 152h-26q-34 0 -54 51l-313 796h-113q-24 0 -24 25zM368 1224.5q0 36.5 25 61.5q25 26 61.5 26t61.5 -26q26 -25 26 -61.5t-26 -61.5q-25 -25 -61.5 -25t-61.5 25t-25 61.5zM692 1224.5q0 36.5 25 61.5q25 26 61.5 26t61.5 -26 q26 -25 26 -61.5t-26 -61.5q-25 -25 -61.5 -25t-61.5 25t-25 61.5z" />
<glyph unicode="&#x152;" horiz-adv-x="1857" d="M98 745q0 332 207 527q204 195 498 198h932q24 0 24 -24v-330q0 -26 -24 -26h-113q-25 0 -25 26v201h-616v-508h518q25 0 25 -25v-104q0 -25 -25 -25h-518v-501h616v200q0 25 25 25h113q24 0 24 -25v-329q0 -25 -24 -25h-930q-302 0 -506 207q-201 207 -201 538zM291 737 q0 -271 151 -422q150 -150 361 -153v1147q-202 -6 -359 -154q-153 -147 -153 -418z" />
<glyph unicode="&#x153;" horiz-adv-x="1953" d="M78 506q0 238 145 377t367 139q137 0 250 -63t174 -175q60 112 167 175t232 63q217 0 337 -132.5t120 -361.5v-16q0 -29 -29 -29h-737q9 -172 106 -262q103 -92 226 -92q124 0 213 53q91 54 120 105q15 21 37 6l56 -55q13 -11 12 -25.5t-31 -46t-100 -88.5 q-123 -92 -332 -92q-119 0 -228 64.5t-167 178.5q-61 -116 -173.5 -179.5t-254.5 -63.5q-223 0 -367 141q-143 143 -143 379zM250 506q0 -169 98 -273t240 -104t241 102q99 105 99 273q0 171 -101 272q-100 103 -237 103t-240 -103q-100 -100 -100 -270zM1108 606h592 q-6 129 -80 205t-197 76q-127 0 -212 -72.5t-103 -208.5z" />
<glyph unicode="&#x178;" horiz-adv-x="1554" d="M98 1341v105q0 24 27 24h461q24 0 24 -24v-105q0 -24 -24 -24h-135l321 -569h12l320 569h-135q-25 0 -25 24v105q0 24 25 24h463q24 0 24 -24v-105q0 -24 -24 -24h-142q-75 -108 -262 -434q-160 -287 -162 -289v-440h158q25 0 25 -25v-104q0 -25 -25 -25h-494 q-24 0 -24 25v104q0 25 24 25h158v438l-82 141q-275 487 -342 584h-139q-27 0 -27 24zM526 1687.5q0 36.5 25 61.5q25 26 61.5 26t61.5 -26q26 -25 26 -61.5t-26 -61.5q-25 -25 -61.5 -25t-61.5 25t-25 61.5zM849 1687.5q0 36.5 25 61.5q25 26 61.5 26t61.5 -26 q26 -25 26 -61.5t-26 -61.5q-25 -25 -61.5 -25t-61.5 25t-25 61.5z" />
<glyph unicode="&#x2c6;" horiz-adv-x="839" d="M78 1237q-13 22 4 39l317 278q8 8 19.5 8t21.5 -10l318 -276q18 -21 4 -39l-51 -59q-14 -22 -39 -4l-254 215l-250 -215q-19 -19 -39 4z" />
<glyph unicode="&#x2dc;" horiz-adv-x="786" d="M72 1157q0 221 176 221q76 0 158 -67q83 -68 126 -68q47 0 65.5 29t18.5 104q0 25 25 25h49q25 0 25 -25q0 -231 -178 -231q-45 0 -89.5 20t-73.5 44.5t-63 44.5t-61 20q-40 0 -60 -26.5t-20 -90.5q0 -24 -25 -24h-49q-24 0 -24 24z" />
<glyph unicode="&#x2000;" horiz-adv-x="1018" />
<glyph unicode="&#x2001;" horiz-adv-x="2037" />
<glyph unicode="&#x2002;" horiz-adv-x="1018" />
<glyph unicode="&#x2003;" horiz-adv-x="2037" />
<glyph unicode="&#x2004;" horiz-adv-x="679" />
<glyph unicode="&#x2005;" horiz-adv-x="509" />
<glyph unicode="&#x2006;" horiz-adv-x="339" />
<glyph unicode="&#x2007;" horiz-adv-x="339" />
<glyph unicode="&#x2008;" horiz-adv-x="254" />
<glyph unicode="&#x2009;" horiz-adv-x="407" />
<glyph unicode="&#x200a;" horiz-adv-x="113" />
<glyph unicode="&#x2010;" horiz-adv-x="847" d="M78 481v105q0 26 28 26h637q27 0 27 -26v-105q0 -26 -27 -26h-637q-28 0 -28 26z" />
<glyph unicode="&#x2011;" horiz-adv-x="847" d="M78 481v105q0 26 28 26h637q27 0 27 -26v-105q0 -26 -27 -26h-637q-28 0 -28 26z" />
<glyph unicode="&#x2012;" horiz-adv-x="847" d="M78 481v105q0 26 28 26h637q27 0 27 -26v-105q0 -26 -27 -26h-637q-28 0 -28 26z" />
<glyph unicode="&#x2013;" horiz-adv-x="1134" d="M78 481v105q0 26 28 26h924q27 0 27 -26v-105q0 -26 -27 -26h-924q-28 0 -28 26z" />
<glyph unicode="&#x2014;" horiz-adv-x="1800" d="M78 481v105q0 26 28 26h1590q26 0 26 -26v-105q0 -26 -26 -26h-1590q-28 0 -28 26z" />
<glyph unicode="&#x2018;" horiz-adv-x="366" d="M78 1386q0 92 46 147.5t116 55.5q14 0 14 -12v-35q0 -6 -10.5 -8t-29.5 -9t-34 -24q-24 -27 -24 -80l4 -24q11 10 32.5 10.5t43 -7.5t37.5 -31t16 -56q0 -42 -29 -69t-76 -27q-106 0 -106 169z" />
<glyph unicode="&#x2019;" horiz-adv-x="366" d="M78 1425q0 42 28 69.5t74 27.5q109 0 109 -172q0 -91 -45.5 -146t-118.5 -55q-12 0 -12 12v35q0 6 10 8.5t27.5 9t31.5 21.5q27 27 27 82l-4 24q-10 -10 -30.5 -10t-42 8.5t-38 31t-16.5 54.5z" />
<glyph unicode="&#x201a;" horiz-adv-x="366" d="M78 80q0 42 28 69t74 27q109 0 109 -172q0 -91 -45.5 -145t-118.5 -54q-12 0 -12 11v34q0 6 10 8t27.5 9t31.5 24q27 27 27 80l-4 25q-10 -10 -30.5 -10t-42 8.5t-38 31t-16.5 54.5z" />
<glyph unicode="&#x201c;" horiz-adv-x="698" d="M78 1386q0 92 46 147.5t116 55.5q14 0 14 -12v-35q0 -6 -10.5 -8t-29.5 -9t-34 -24q-24 -27 -24 -80l4 -24q11 10 32.5 10.5t43 -7.5t37.5 -31t16 -56q0 -42 -29 -69t-76 -27q-106 0 -106 169zM412 1386q0 93 44 148t117 55q15 0 15 -12v-35q0 -6 -10.5 -8t-29.5 -9 t-34 -24q-25 -28 -25 -80l5 -24q10 10 30.5 10t42 -8.5t38 -31t16.5 -54.5q0 -42 -28 -69t-75 -27q-106 0 -106 169z" />
<glyph unicode="&#x201d;" horiz-adv-x="698" d="M78 1425q0 42 28 69.5t74 27.5q109 0 109 -172q0 -91 -45.5 -146t-118.5 -55q-12 0 -12 12v35q0 6 10 8.5t27.5 9t31.5 21.5q27 27 27 82l-4 24q-10 -10 -30.5 -10t-42 8.5t-38 31t-16.5 54.5zM412 1425q0 42 28 69.5t74 27.5q107 0 107 -172q0 -92 -44.5 -146.5 t-117.5 -54.5q-15 0 -15 12v35q0 6 10.5 8.5t29 9t32.5 21.5q27 27 27 82l-4 24q-10 -10 -30.5 -10t-42 8.5t-38 31t-16.5 54.5z" />
<glyph unicode="&#x201e;" horiz-adv-x="675" d="M78 80q0 42 28 69t74 27q109 0 109 -172q0 -91 -45.5 -145t-118.5 -54q-12 0 -12 11v34q0 6 10 8t27.5 9t31.5 24q27 27 27 80l-4 25q-10 -10 -30.5 -10t-42 8.5t-38 31t-16.5 54.5zM387 80q0 42 28 69t74 27q107 0 107 -172q0 -91 -44.5 -145t-117.5 -54q-14 0 -14 11 v34q0 6 10.5 8t29 9t32.5 24q26 26 26 80l-4 25q-10 -10 -30.5 -10t-42 8.5t-38 31t-16.5 54.5z" />
<glyph unicode="&#x2022;" horiz-adv-x="538" d="M78 684q0 93 50.5 147t137.5 54q88 0 141.5 -55t53.5 -146q0 -88 -52.5 -141.5t-142.5 -53.5q-88 0 -138 52t-50 143z" />
<glyph unicode="&#x2026;" horiz-adv-x="813" d="M57 82.5q0 41.5 29 67.5q29 29 70 29t67 -29q29 -26 29 -67.5t-29 -70.5q-26 -26 -67 -26t-70 26q-29 29 -29 70.5zM311 83q0 41 29 67q29 29 68.5 29t68.5 -29q29 -26 29 -67.5t-29 -70.5q-29 -26 -69.5 -26t-69.5 26q-27 30 -27 71zM561 83q0 41 29 67q29 29 68.5 29 t68.5 -29q29 -26 29 -67.5t-29 -70.5q-29 -26 -69.5 -26t-69.5 26q-27 30 -27 71z" />
<glyph unicode="&#x202f;" horiz-adv-x="407" />
<glyph unicode="&#x205f;" horiz-adv-x="509" />
<glyph unicode="&#x20ac;" horiz-adv-x="1466" d="M78 530v76q0 25 26 25h140q-12 88 -2 190h-138q-26 0 -26 25v74q0 26 26 26h156q55 248 238 393q184 144 403 144q221 0 426 -129q18 -15 4 -35l-69 -86q-15 -21 -35 -4q-121 86 -287 86q-167 0 -301 -96t-180 -273h540q27 0 27 -26v-74q0 -25 -27 -25h-567 q-5 -23 -4.5 -82.5t6.5 -107.5h447q26 0 26 -25v-76q0 -24 -26 -24h-408q53 -172 182 -260q128 -88 283 -88q201 0 332 90q22 16 35 0l73 -88q20 -23 0 -37q-168 -137 -428 -137q-255 0 -438 139q-179 136 -244 381h-164q-26 0 -26 24z" />
<glyph unicode="&#x2122;" horiz-adv-x="2119" d="M78 1249v207q0 14 18 14h770q17 0 17 -14v-207q0 -16 -17 -16h-80q-16 0 -16 16v111h-221v-660h92q16 0 16 -16v-78q0 -16 -16 -16h-317q-17 0 -17 16v78q0 16 17 16h94v660h-228v-111q0 -16 -16 -16h-78q-18 0 -18 16zM1008 604v82q0 14 14 14h90v660h-90q-14 0 -14 14 v82q0 14 14 14h211q44 0 59 -40l178 -439l52 -147h4q10 33 51 147l176 439q15 40 59 40h213q17 0 17 -14v-82q0 -14 -17 -14h-90v-660h90q17 0 17 -14v-82q0 -14 -17 -14h-296q-15 0 -15 14v82q0 14 15 14h79v588h-2l-229 -573q-14 -39 -55 -39q-40 0 -52 39l-229 573h-4 v-588h80q14 0 14 -14v-82q0 -14 -14 -14h-295q-14 0 -14 14z" />
<glyph unicode="&#xe000;" horiz-adv-x="1003" d="M0 0v1004h1004v-1004h-1004z" />
</font>
</defs>
</svg>
